<?xml version="1.0" encoding="UTF-8"?>
<svg width="76px" height="88px" viewBox="0 0 76 88" version="1.1" xmlns="http://www.w3.org/2000/svg" xmlns:xlink="http://www.w3.org/1999/xlink">
    <title>icon</title>
    <g id="Designs" stroke="none" stroke-width="1" fill="none" fill-rule="evenodd">
        <g id="YTT-Op1" transform="translate(-362.000000, -1087.000000)" fill="#FFFFFF">
            <g id="Blog-Highlights" transform="translate(0.000000, 941.000000)">
                <g id="Blog-Feature-1" transform="translate(250.000000, 126.000000)">
                    <g id="icon" transform="translate(112.183544, 20.000000)">
                        <g id="Group-3" transform="translate(0.816456, 0.000000)">
                            <path d="M59.2560152,87.9981474 C58.6696354,87.9981474 58.1628759,87.5627789 58.0944962,86.9736421 C57.8518886,84.8959158 55.7948759,66.5483789 58.2172051,61.9038316 C59.1988759,60.0215579 60.4231544,57.9660632 61.7186228,55.7901474 C65.0608,50.1766737 68.8497873,43.8147368 70.2576608,37.5333895 C72.6237873,26.9678316 71.2814835,18.5772632 66.2663443,12.5941895 C57.2926734,1.88597895 39.4034076,2.31486316 39.2254329,2.31764211 C30.065357,2.31856842 18.2590785,6.27486316 13.3441671,13.8363789 C10.2998633,18.5216842 9.85492658,27.2707368 10.4544203,33.8966737 C10.9827241,39.7352421 3.25019241,51.5244632 2.48490127,52.6749474 C2.41652152,52.8296421 2.36219241,53.0250947 2.34533165,53.1640421 C2.63009114,53.2196211 3.10312911,53.2826105 3.56211646,53.3456 C6.73662278,53.7754105 8.06862278,54.0523789 8.45923038,55.0796632 C8.55102785,55.3223579 8.79457215,55.9642947 8.53416709,68.6844632 C8.52573671,68.8011789 8.27282532,71.6866526 9.81839494,73.3642105 C10.5855595,74.1969684 11.6712051,74.6008421 13.1380911,74.6008421 C13.9305468,74.6008421 14.7707747,74.5628632 15.6213063,74.5248842 C19.7606228,74.3396211 24.9087747,74.1080421 25.589762,78.6988632 C26.2389013,83.0766316 26.1199392,86.7272421 26.114319,86.8810105 C26.091838,87.5192421 25.5410532,88.0426105 24.9040911,87.9972211 C24.257762,87.9759158 23.7519392,87.4386526 23.7744203,86.8004211 C23.775357,86.7652211 23.8905722,83.1952 23.2723443,79.0351158 C22.9248253,76.6915368 20.0603696,76.6405895 15.7271544,76.8378947 C14.8400911,76.8777263 13.9642684,76.9166316 13.1380911,76.9166316 C10.9977114,76.9166316 9.29477468,76.2422737 8.07517975,74.9111579 C5.83363544,72.4629053 6.18209114,68.7057684 6.19801519,68.5473684 C6.29730633,63.5322947 6.35069873,57.8215579 6.26358481,56.1643789 C5.54700253,55.9513263 3.97801519,55.7392 3.24457215,55.6391579 C2.56545823,55.5483789 2.02872405,55.4761263 1.69806582,55.3964632 C1.01145823,55.2325053 0.48315443,54.8221474 0.209635443,54.2413474 C-0.311174684,53.1344 0.28644557,51.8403368 0.411964557,51.5920842 C0.433508861,51.5494737 0.457863291,51.5077895 0.484091139,51.4679579 C2.74155949,48.1035789 8.51262278,38.4235789 8.12201519,34.1023158 C7.48786329,27.0947368 8.00961013,17.7630316 11.3742684,12.5849263 C16.7425468,4.32496842 29.4302684,0.00277894737 39.1889013,0.00277894737 C39.9326481,-0.0194526316 58.3698886,-0.4576 68.0704456,11.1167158 C73.5698633,17.6787368 75.0751544,26.7344 72.5432304,38.0345263 C71.0557367,44.6734316 67.1674582,51.2039579 63.7362937,56.9656421 C62.4576861,59.1119158 61.2493316,61.1414737 60.2976354,62.9663158 C58.5216354,66.3714526 59.784319,81.2592 60.4203443,86.7068632 C60.4943443,87.3423158 60.0344203,87.9166316 59.391838,87.9907368 C59.3459392,87.9953684 59.3009772,87.9981474 59.2560152,87.9981474" id="Fill-1"></path>
                        </g>
                        <path d="M54.3164557,26.375 C50.3872557,26.375 47.1914557,29.5708 47.1914557,33.5 C47.1914557,37.4292 50.3872557,40.625 54.3164557,40.625 C58.2456557,40.625 61.4414557,37.4292 61.4414557,33.5 C61.4414557,29.5708 58.2456557,26.375 54.3164557,26.375 M54.3164557,43 C49.0781557,43 44.8164557,38.7383 44.8164557,33.5 C44.8164557,28.2617 49.0781557,24 54.3164557,24 C59.5547557,24 63.8164557,28.2617 63.8164557,33.5 C63.8164557,38.7383 59.5547557,43 54.3164557,43" id="Fill-4"></path>
                        <path d="M37.014672,14.9879393 C37.014672,12.4191728 38.9869117,10.3293131 41.4111046,10.3293131 C43.8352976,10.3293131 45.8075372,12.4191728 45.8075372,14.9879393 C45.8075372,17.5567058 43.8352976,19.6465656 41.4111046,19.6465656 C38.9869117,19.6465656 37.014672,17.5567058 37.014672,14.9879393 L37.014672,14.9879393 Z M48.8164557,24.6834722 L45.8673287,20.1245406 C47.1783449,18.8462136 48.0057535,17.0200321 48.0057535,14.9879393 C48.0057535,11.1343237 45.0478337,8 41.4111046,8 C37.7743756,8 34.8164557,11.1343237 34.8164557,14.9879393 C34.8164557,18.8415549 37.7743756,21.9758787 41.4111046,21.9758787 C42.3405105,21.9758787 43.2241934,21.7681039 44.0278613,21.3991407 L47.0024876,26 L48.8164557,24.6834722 Z" id="Fill-6"></path>
                        <path d="M26.6486007,27.9525963 C26.3479479,29.1823384 25.1002851,29.9335924 23.8700914,29.6387849 C23.2743025,29.4927587 22.769537,29.1235606 22.4514151,28.6000706 C22.1323739,28.0756623 22.0367534,27.4594136 22.1829424,26.8624514 C22.3282119,26.267326 22.6978216,25.7631226 23.2218952,25.445355 C23.5869078,25.2240198 23.996053,25.1101378 24.4116341,25.1101378 C24.5946001,25.1101378 24.7784856,25.1330978 24.9614516,25.1771812 C26.1916453,25.4774991 26.9492534,26.7228541 26.6486007,27.9525963 L26.6486007,27.9525963 Z M33.8164557,20.673331 L32.2433156,19 L27.1827879,23.7453903 C26.6973303,23.3789474 26.1337214,23.1006711 25.5057525,22.9472978 C24.3132554,22.6543271 23.0784645,22.8462734 22.029398,23.4836454 C20.9794121,24.1200989 20.241112,25.1275874 19.9496535,26.3187566 C19.6581951,27.5108442 19.8485165,28.7433416 20.486599,29.7921582 C21.1237622,30.8409749 22.1323739,31.5775344 23.324871,31.8686683 C23.6898837,31.9577534 24.0558157,32 24.4153118,32 C26.4849426,32 28.3697685,30.5920876 28.8818895,28.4981279 L28.8818895,28.4972095 C29.1310543,27.4750265 28.9995762,26.4565171 28.6023836,25.5610738 L33.8164557,20.673331 Z" id="Fill-8"></path>
                    </g>
                </g>
            </g>
        </g>
    </g>
</svg>