<?xml version="1.0" encoding="UTF-8"?>
<svg width="77px" height="62px" viewBox="0 0 77 62" version="1.1" xmlns="http://www.w3.org/2000/svg" xmlns:xlink="http://www.w3.org/1999/xlink">
    <title>Group 9</title>
    <defs>
        <polygon id="path-1" points="0 0.689464286 74.9992105 0.689464286 74.9992105 44.3191339 0 44.3191339"></polygon>
        <polygon id="path-3" points="0.491634 0.547872 38.756094 0.547872 38.756094 39 0.491634 39"></polygon>
    </defs>
    <g id="Designs" stroke="none" stroke-width="1" fill="none" fill-rule="evenodd">
        <g id="Home-Page-Carvel-Op1" transform="translate(-682.000000, -867.000000)">
            <g id="Callout-5" transform="translate(569.000000, 822.000000)">
                <g id="Group-9" transform="translate(113.205882, 45.000000)">
                    <g id="Group-3" transform="translate(0.794118, 0.000000)">
                        <mask id="mask-2" fill="white">
                            <use xlink:href="#path-1"></use>
                        </mask>
                        <g id="Clip-2"></g>
                        <path d="M64.5997895,17.0499375 C63.7929474,8.0218125 57.1132105,0.9005625 48.819,0.694848214 C48.6847895,0.691633929 48.5513684,0.689223214 48.4179474,0.689223214 C41.7105789,0.689223214 35.9142632,5.27440179 33.4147895,11.8355625 C31.7095263,10.9934196 29.8226842,10.5265446 27.8126842,10.4702946 C27.699,10.4670804 27.5845263,10.4654732 27.4708421,10.4654732 C20.8692632,10.4654732 15.3295263,15.2354732 13.9708421,21.6857411 C13.1087368,21.4422589 12.1929474,21.3120804 11.2597895,21.2927946 C11.1697895,21.2903839 11.079,21.2895804 10.9905789,21.2895804 C5.04268421,21.2887768 0.144,26.1511875 0.00268421053,32.2639554 C-0.141,38.4699375 5.41452632,44.1463661 11.4824211,44.3143125 C11.634,44.3175268 12.0816316,44.3191339 12.774,44.3191339 C13.554,44.3191339 14.6624211,44.3167232 16.0005789,44.3135089 L16.0005789,42.3045804 C14.6600526,42.3077946 13.5500526,42.3102054 12.774,42.3102054 C12.1013684,42.3102054 11.6679474,42.3085982 11.5361053,42.3061875 C6.50636842,42.1663661 1.86031579,37.3095804 1.97636842,32.3113661 C2.09084211,27.3412768 6.13452632,23.2977054 10.9897895,23.2985089 C11.0632105,23.2985089 11.1374211,23.2993125 11.2203158,23.3017232 C11.9987368,23.3169911 12.7463684,23.4246696 13.4434737,23.6215446 L15.4621579,24.1912768 L15.9003158,22.1068125 C17.0766316,16.5252054 21.9421579,12.4744018 27.4708421,12.4744018 C27.5687368,12.4744018 27.6666316,12.4760089 27.759,12.4784196 C29.4721579,12.5266339 31.0858421,12.9179732 32.5534737,13.6427946 L34.4813684,14.5942232 L35.2550526,12.5619911 C37.5374211,6.56975893 42.7045263,2.69815179 48.4179474,2.69815179 C48.5332105,2.69815179 48.6500526,2.69975893 48.7708421,2.70297321 C55.9495263,2.88136607 61.9100526,9.12752679 62.634,17.2323482 L62.7824211,18.8909196 L64.4118947,19.0492232 C69.3911053,19.5337768 73.1726842,24.7087768 73.0211053,30.8368125 C72.8868947,37.0837768 68.6371579,42.1655625 63.5474211,42.1655625 C63.4787368,42.1655625 63.4100526,42.1647589 63.3295263,42.1623482 C63.1818947,42.1599375 62.7295263,42.1583304 62.0205789,42.1583304 C61.1853158,42.1583304 59.9584737,42.1599375 58.4608421,42.1631518 L58.4608421,44.1720804 C59.9568947,44.1688661 61.1805789,44.1672589 62.0205789,44.1672589 C62.7074211,44.1672589 63.1455789,44.1680625 63.2892632,44.1712768 C63.3753158,44.1736875 63.4621579,44.1744911 63.5474211,44.1744911 C69.7171579,44.1744911 74.8361053,38.2553839 74.9947895,30.8810089 C75.1747895,23.6295804 70.5603158,17.6293125 64.5997895,17.0499375" id="Fill-1" fill="#0095D3" mask="url(#mask-2)"></path>
                    </g>
                    <path d="M48.7573806,42.5140872 C48.7403791,42.3404091 48.7152818,42.1705905 48.6885653,42 C45.3910969,42.0115785 41.8628948,42.0231571 38.3686956,42.0347356 C34.8218729,42.0470861 31.2410473,42.0594365 27.8966226,42.0694712 C27.8091867,42.7248167 27.7751838,43.3678117 27.8043291,44 C34.4559373,43.9783867 42.1300602,43.9513701 48.774382,43.9297569 C48.8051465,43.46044 48.800289,42.9888074 48.7573806,42.5140872" id="Fill-4" fill="#0095D3"></path>
                    <g id="Group-8" transform="translate(18.794118, 23.000000)">
                        <mask id="mask-4" fill="white">
                            <use xlink:href="#path-3"></use>
                        </mask>
                        <g id="Clip-7"></g>
                        <path d="M30.255654,25.512552 C31.435794,23.259912 31.927974,20.990112 31.731414,18.702372 C31.534854,16.609632 30.800874,14.697072 29.532594,12.963132 C28.298634,11.283792 26.726154,9.996012 24.812814,9.101352 C22.863594,8.172372 20.862114,7.788612 18.806814,7.948512 C15.803034,8.180952 13.326534,9.244872 11.378874,11.140272 C9.609054,12.855492 8.499894,15.000492 8.052954,17.576052 C7.624734,20.096232 7.893054,22.508772 8.857914,24.814452 C9.894534,27.246492 11.539554,29.077932 13.792974,30.311892 C16.759314,31.921032 19.922994,32.189352 23.284014,31.116852 C26.502294,30.097392 28.825914,28.229292 30.255654,25.512552 L30.255654,25.512552 Z M38.756094,22.912032 C38.452674,22.983012 37.844274,23.152272 36.933234,23.420592 C36.199254,23.635092 35.573694,23.777832 35.056554,23.849592 C34.859214,24.170952 34.572954,24.832392 34.197774,25.833912 C33.876414,26.728572 33.544914,27.354132 33.205614,27.711372 C33.329634,27.907932 33.661134,28.480452 34.197774,29.427372 C34.590894,30.123912 34.940334,30.669912 35.243754,31.063032 C34.886514,31.581732 33.474714,33.055932 31.006794,35.487192 C29.809494,34.915452 28.637934,34.236072 27.495234,33.449052 C26.189514,34.218132 24.955554,34.710312 23.793354,34.924812 C23.544534,35.335872 23.311314,36.005892 23.096814,36.935652 C22.863594,37.954332 22.658454,38.642292 22.479834,39.000312 L16.581474,39.000312 C16.384134,38.589252 16.187574,37.944972 15.991014,37.069812 C15.776514,36.140052 15.597114,35.487192 15.454374,35.112012 C13.112034,34.075392 11.888214,33.520812 11.781354,33.449052 C11.261874,33.610512 10.655034,33.904572 9.958494,34.335132 C9.152754,34.835112 8.591154,35.156472 8.269014,35.299992 C7.749534,34.960692 6.328374,33.601152 4.005534,31.223712 C4.112394,30.830592 4.728594,29.659032 5.855694,27.711372 C5.783934,27.496092 5.507034,26.852592 5.023434,25.780092 C4.684914,24.993852 4.469634,24.287952 4.379934,23.661612 C3.844074,23.591412 3.181854,23.447892 2.395614,23.233392 C1.484574,22.965072 0.850434,22.795032 0.491634,22.723272 L0.491634,16.636932 C0.795834,16.565952 1.404234,16.395912 2.316054,16.126812 C3.048474,15.913092 3.674034,15.769572 4.192734,15.697812 C4.370574,15.376452 4.665414,14.724372 5.078034,13.740792 C5.435274,12.882792 5.757414,12.248652 6.042894,11.836812 C5.113914,10.085712 4.434534,8.968752 4.005534,8.484372 C4.361994,7.967232 5.783934,6.492252 8.269014,4.061772 C9.805614,4.811352 10.976394,5.491512 11.781354,6.099132 C13.980174,5.134272 15.266394,4.642092 15.642354,4.624152 C15.713334,4.391712 15.902094,3.702972 16.204734,2.558712 C16.420014,1.737372 16.607994,1.066572 16.767894,0.547872 L22.667034,0.547872 C22.882314,1.084512 23.256714,2.380872 23.793354,4.436172 C24.026574,4.543812 24.660714,4.794192 25.698114,5.187312 C26.502294,5.491512 27.100554,5.795712 27.495234,6.099132 C28.012374,5.955612 28.611414,5.660772 29.290794,5.213832 C30.095754,4.713852 30.667494,4.391712 31.006794,4.248192 C31.650294,4.642092 32.400654,5.303532 33.260214,6.233292 C34.260954,7.269912 34.984794,7.967232 35.431734,8.324472 C34.555014,9.951552 33.876414,11.122332 33.393594,11.836812 C34.412274,14.786772 34.904454,16.136952 34.868574,15.886572 C35.422374,15.940392 36.084594,16.083132 36.852114,16.314792 C37.764714,16.582332 38.398074,16.753152 38.756094,16.824132 L38.756094,22.912032 Z" id="Fill-6" fill="#0095D3" mask="url(#mask-4)"></path>
                    </g>
                </g>
            </g>
        </g>
    </g>
</svg>