<?xml version="1.0" encoding="UTF-8"?>
<svg width="65px" height="65px" viewBox="0 0 65 65" version="1.1" xmlns="http://www.w3.org/2000/svg" xmlns:xlink="http://www.w3.org/1999/xlink">
    <title>icon</title>
    <g id="Designs" stroke="none" stroke-width="1" fill="none" fill-rule="evenodd">
        <g id="Home-Page-Carvel-Op1" transform="translate(-688.000000, -522.000000)" fill="#0091DA">
            <g id="Callout-2" transform="translate(569.000000, 483.000000)">
                <g id="icon" transform="translate(119.000000, 39.000000)">
                    <path d="M48,58.8726405 L43.0739281,59.0715619 L43.9044744,60.4240821 C40.4728209,62.2484962 36.8250558,63.1850239 33.0445163,63.1850239 C28.8748348,63.1850239 24.7355219,61.9936735 21.0150134,59.7576229 L21.9112407,58.4443062 L17,58 L19.0806033,62.5933416 L19.998018,61.2480813 C24.0215064,63.6961211 28.5139427,65 33.0445163,65 C37.1605231,65 41.1268055,63.9705455 44.8494327,61.9639079 L45.7054039,63.3578096 L48,58.8726405 Z" id="Fill-1"></path>
                    <path d="M21,10.509177 L16.2305174,10 L16.8537591,11.4241589 C14.3113177,12.7763765 12.0581649,14.432424 10.1767583,16.3818245 C8.0438561,18.591052 6.47991108,21.0503279 5.50622474,23.6946956 L4,23.3196228 L5.33993533,28 L8.65885206,24.4804625 L7.1849232,24.1130728 C8.07890057,21.7711381 9.4916734,19.5842614 11.4026273,17.6048271 C13.1342361,15.8104847 15.2107922,14.2808583 17.5546483,13.0229328 L18.1813258,14.4533778 L21,10.509177 Z" id="Fill-3"></path>
                    <path d="M59.4839435,23.6388725 C58.3441195,20.6222432 56.4608713,17.8681448 53.8578441,15.450171 C52.1971364,13.9082439 50.2874616,12.5679915 48.1928002,11.438613 L48.829822,10 L44,10.4953414 L46.8353037,14.5040689 L47.4771937,13.0548414 C49.4028636,14.1035499 51.1595418,15.339073 52.6853344,16.7571648 C55.0310493,18.9352518 56.7397423,21.3978063 57.7898548,24.0818493 L56.2981387,24.4717537 L59.6953569,28 L61,23.2425994 L59.4839435,23.6388725 Z" id="Fill-5"></path>
                    <path d="M54.5177601,34.6631693 C48.8577673,34.6631693 45.8214604,33.2825477 45.7721404,32.6943008 C45.8214604,32.1046746 48.8577673,30.724053 54.5177601,30.724053 C60.1777528,30.724053 63.2133651,32.1046746 63.2633797,32.6936112 C63.2133651,33.2832373 60.1777528,34.6631693 54.5177601,34.6631693 L54.5177601,34.6631693 Z M64.9166422,33.2032412 C64.9673515,33.039801 65,32.8708438 65,32.6936112 C65,30.1558051 59.5664625,29 54.5177601,29 C49.4690576,29 44.0355201,30.1558051 44.0355201,32.6936112 C44.0355201,35.2314172 49.4690576,36.3872223 54.5177601,36.3872223 C57.7645453,36.3872223 61.1620692,35.9058667 63.180022,34.8900547 L63.180022,39.7615388 C63.1376484,39.8636028 63.1133357,39.9746318 63.1133357,40.0918674 C63.1133357,40.4373676 60.9633998,41.7235112 54.5177601,41.7235112 C48.8577673,41.7235112 45.8214604,40.3428895 45.7721404,39.7422294 L45.7367133,37.3464854 C45.7297669,36.8747845 45.3421532,36.4968721 44.8684032,36.4968721 L44.8558995,36.4968721 C44.3758977,36.5037683 43.9931466,36.8954731 44,37.3713118 L44.0355201,39.7546426 C44.0355201,42.2924486 49.4690576,43.4475642 54.5177601,43.4475642 C56.6857568,43.4475642 60.8557294,43.2868824 63.180022,42.1621102 L63.180022,46.5377568 C63.1376484,46.6398207 63.1133357,46.7508497 63.1133357,46.8680853 C63.1133357,47.2135855 60.9633998,48.4997291 54.5177601,48.4997291 C48.8577673,48.4997291 45.8214604,47.1191074 45.7721404,46.5177577 L45.7367133,44.1220137 C45.7297669,43.6503128 45.3421532,43.2724004 44.8684032,43.2724004 L44.8558995,43.2724004 C44.3758977,43.2799862 43.9931466,43.671691 44,44.1468401 L44.0355201,46.5301709 C44.0355201,49.0679769 49.4690576,50.2237821 54.5177601,50.2237821 C56.6857568,50.2237821 60.8557294,50.0631003 63.180022,48.9383282 L63.180022,53.3132851 C63.1376484,53.415349 63.1133357,53.5270676 63.1133357,53.6436136 C63.1133357,53.9891138 60.9633998,55.275947 54.5177601,55.275947 C48.8577673,55.275947 45.8214604,53.8953254 45.7721404,53.2939757 L45.7367133,50.8982316 C45.7297669,50.4265307 45.3421532,50.0486183 44.8684032,50.0486183 L44.8558995,50.0486183 C44.3758977,50.0555145 43.9931466,50.4472193 44,50.923058 L44.0355201,53.3063888 C44.0355201,55.8441949 49.4690576,57 54.5177601,57 C57.4054122,57 63.8468841,56.7158761 64.7422856,54.2442737 L64.9166422,54.2442737 L64.9166422,33.2032412 Z" id="Fill-7"></path>
                    <path d="M10.5177601,34.6631693 C4.85707264,34.6631693 1.82146041,33.2825477 1.7721404,32.6943008 C1.82146041,32.1046746 4.85707264,30.724053 10.5177601,30.724053 C16.1770582,30.724053 19.2126704,32.1046746 19.2633797,32.6936112 C19.2126704,33.2832373 16.1770582,34.6631693 10.5177601,34.6631693 M10.5177601,29 C5.46905762,29 0.0355201289,30.1558051 0.0355201289,32.6936112 C0.0355201289,35.2314172 5.46905762,36.3872223 10.5177601,36.3872223 C13.7645453,36.3872223 17.1620692,35.9058667 19.180022,34.8900547 L19.180022,39.7615388 C19.1376484,39.8636028 19.1133357,39.9746318 19.1133357,40.0918674 C19.1133357,40.4373676 16.9633998,41.7235112 10.5177601,41.7235112 C4.85707264,41.7235112 1.82146041,40.3428895 1.7721404,39.7422294 L1.73671334,37.3464854 C1.72976686,36.8747845 1.34215322,36.4968721 0.868403209,36.4968721 L0.855899543,36.4968721 C0.375897701,36.5037683 -0.00685340558,36.8954731 0,37.3713118 L0.0355201289,39.7546426 C0.0355201289,42.2924486 5.46905762,43.4475642 10.5177601,43.4475642 C12.6857568,43.4475642 16.8557294,43.2868824 19.180022,42.1621102 L19.180022,46.5377568 C19.1376484,46.6398207 19.1133357,46.7508497 19.1133357,46.8680853 C19.1133357,47.2135855 16.9633998,48.4997291 10.5177601,48.4997291 C4.85707264,48.4997291 1.82146041,47.1191074 1.7721404,46.5177577 L1.73671334,44.1220137 C1.72976686,43.6503128 1.34215322,43.2724004 0.868403209,43.2724004 L0.855899543,43.2724004 C0.375897701,43.2799862 -0.00685340558,43.671691 0,44.1468401 L0.0355201289,46.5301709 C0.0355201289,49.0679769 5.46905762,50.2237821 10.5177601,50.2237821 C12.6857568,50.2237821 16.8557294,50.0631003 19.180022,48.9383282 L19.180022,53.3132851 C19.1376484,53.415349 19.1133357,53.5270676 19.1133357,53.6436136 C19.1133357,53.9891138 16.9633998,55.275947 10.5177601,55.275947 C4.85707264,55.275947 1.82146041,53.8953254 1.7721404,53.2939757 L1.73671334,50.8982316 C1.72976686,50.4265307 1.34215322,50.0486183 0.868403209,50.0486183 L0.855899543,50.0486183 C0.375897701,50.0555145 -0.00685340558,50.4472193 0,50.923058 L0.0355201289,53.3063888 C0.0355201289,55.8441949 5.46905762,57 10.5177601,57 C13.4054122,57 19.8468841,56.7158761 20.7422856,54.2442737 L20.9166422,54.2442737 L20.9166422,33.2032412 C20.9673515,33.039801 21,32.8708438 21,32.6936112 C21,30.1558051 15.5664625,29 10.5177601,29" id="Fill-9"></path>
                    <path d="M32.5177601,5.66261915 C26.8570726,5.66261915 23.8214604,4.2819635 23.7721404,3.69370213 C23.8214604,3.10475111 26.8570726,1.72409547 32.5177601,1.72409547 C38.1763635,1.72409547 41.2126704,3.10406148 41.2633797,3.69301249 C41.2126704,4.28265314 38.1770582,5.66261915 32.5177601,5.66261915 M32.5177601,0 C27.4690576,0 22.0355201,1.15514396 22.0355201,3.69301249 C22.0355201,6.23088101 27.4690576,7.38671461 32.5177601,7.38671461 C35.7645453,7.38671461 39.1620692,6.90534716 41.180022,5.88951011 L41.180022,10.7611143 C41.1376484,10.8631807 41.1133357,10.9742125 41.1133357,11.0914509 C41.1133357,11.4369597 38.9633998,12.7238245 32.5177601,12.7238245 C26.8570726,12.7238245 23.8214604,11.3431689 23.7721404,10.7418044 L23.7367133,8.34600133 C23.7297669,7.87428881 23.3421532,7.49636708 22.8684032,7.49636708 L22.8558995,7.49636708 C22.3758977,7.50326347 21.9931466,7.89497796 22,8.3708283 L22.0355201,10.7542179 C22.0355201,13.2920864 27.4690576,14.44792 32.5177601,14.44792 C34.6857568,14.44792 38.8557294,14.2872343 41.180022,13.1624344 L41.180022,17.5374991 C41.1376484,17.6395655 41.1133357,17.7505973 41.1133357,17.8678358 C41.1133357,18.2133445 38.9633998,19.4995197 32.5177601,19.4995197 C26.8570726,19.4995197 23.8214604,18.1188641 23.7721404,17.5174996 L23.7367133,15.1216965 C23.7297669,14.649984 23.3421532,14.2720623 22.8684032,14.2720623 L22.8558995,14.2720623 C22.3758977,14.2796483 21.9931466,14.6713628 22,15.1465235 L22.0355201,17.5299131 C22.0355201,20.0677816 27.4690576,21.2236152 32.5177601,21.2236152 C34.6857568,21.2236152 38.8557294,21.0636191 41.180022,19.9381296 L41.180022,24.3131943 C41.1376484,24.4152607 41.1133357,24.5269821 41.1133357,24.6435309 C41.1133357,24.9890397 38.9633998,26.2759045 32.5177601,26.2759045 C26.8570726,26.2759045 23.8214604,24.8952489 23.7721404,24.2938844 L23.7367133,21.8980813 C23.7297669,21.4263688 23.3421532,21.0484471 22.8684032,21.0484471 L22.8558995,21.0484471 C22.3758977,21.0553435 21.9931466,21.447058 22,21.9229083 L22.0355201,24.3062979 C22.0355201,26.8441664 27.4690576,28 32.5177601,28 C35.4054122,28 41.8468841,27.7165587 42.7422856,25.2442058 L42.9166422,25.2442058 L42.9166422,4.20265511 C42.9673515,4.03921086 43,3.8702495 43,3.69301249 C43,1.15514396 37.5664625,0 32.5177601,0" id="Fill-11"></path>
                </g>
            </g>
        </g>
    </g>
</svg>