<?xml version="1.0" encoding="UTF-8"?>
<svg width="83px" height="47px" viewBox="0 0 83 47" version="1.1" xmlns="http://www.w3.org/2000/svg" xmlns:xlink="http://www.w3.org/1999/xlink">
    <title>icon</title>
    <defs>
        <polygon id="path-1" points="0 0 83 0 83 47 0 47"></polygon>
    </defs>
    <g id="Designs" stroke="none" stroke-width="1" fill="none" fill-rule="evenodd">
        <g id="YTT-Op1" transform="translate(-679.000000, -551.000000)">
            <g id="Callout-2" transform="translate(569.000000, 512.000000)">
                <g id="icon" transform="translate(110.000000, 39.000000)">
                    <mask id="mask-2" fill="white">
                        <use xlink:href="#path-1"></use>
                    </mask>
                    <g id="Clip-2"></g>
                    <path d="M14.1371652,44.8351389 C13.3925268,44.8351389 12.912707,44.834273 12.7667509,44.8316751 C7.20031716,44.6810008 2.05951586,39.4489646 2.18711821,34.065388 C2.23343961,32.1066217 2.8662074,30.2855406 3.90800188,28.7588805 L26.71124,28.7588805 C26.1361555,28.1735021 25.7795681,27.3768332 25.7795681,26.4961677 C25.7795681,24.7019309 27.246995,23.2488761 29.0570256,23.2488761 C30.8670561,23.2488761 32.334483,24.7019309 32.334483,26.4961677 C32.334483,27.3768332 31.9770217,28.1735021 31.4019371,28.7588805 L46.28509,28.7588805 L46.28509,35.0820068 C45.7012656,34.5459872 44.9260377,34.2117326 44.0669068,34.2117326 C42.2568763,34.2117326 40.7894493,35.6656533 40.7894493,37.4590242 C40.7894493,39.2523952 42.2568763,40.7063159 44.0669068,40.7063159 C44.9260377,40.7063159 45.7012656,40.3720613 46.28509,39.8360417 L46.28509,44.7364213 C44.6953047,44.7416169 43.0932834,44.7476785 41.4965062,44.7528742 C30.0341449,44.7935736 18.1828587,44.8351389 14.1371652,44.8351389 M53.9735683,2.17005675 C61.9172512,2.36229641 68.5123696,9.09068465 69.3146912,17.8202705 L69.4790011,19.6084457 L71.2829137,19.7790368 C75.4256199,20.1721755 78.8175699,23.4203331 80.1757483,27.8124033 L65.4997307,27.8124033 C66.1630881,28.4064412 66.5878466,29.2576645 66.5878466,30.2136672 C66.5878466,32.0070381 65.1204196,33.4609588 63.3103891,33.4609588 C61.5003586,33.4609588 60.0329316,32.0070381 60.0329316,30.2136672 C60.0329316,29.2576645 60.4576901,28.4064412 61.1219215,27.8124033 L46.7063526,27.8124033 L46.7063526,18.0575392 C47.2578394,18.4749245 47.9378026,18.73211 48.6850629,18.73211 C50.4959674,18.73211 51.9625204,17.2781893 51.9625204,15.4848183 C51.9625204,13.6914474 50.4959674,12.2375267 48.6850629,12.2375267 C47.9378026,12.2375267 47.2578394,12.4947122 46.7063526,12.9120974 L46.7063526,3.91320289 C48.8109172,2.78660918 51.1505849,2.16486108 53.5820213,2.16486108 C53.7104977,2.16486108 53.838974,2.16659297 53.9735683,2.17005675 M71.490923,17.624567 C70.5977066,7.89914511 63.2055105,0.227743386 54.0260076,0.00606161103 C53.8783035,0.0025978333 53.7297254,0 53.5820213,0 C46.1636056,0 39.7511508,4.93415137 36.9832287,11.9976601 C36.964001,11.9933304 36.9447732,11.9890007 36.9246715,11.9846709 C35.0517138,11.0936141 32.9829826,10.596562 30.7796572,10.5368119 C30.6529289,10.5333481 30.5262005,10.5316162 30.4012201,10.5316162 C23.0955489,10.5316162 16.9645185,15.6701304 15.461258,22.6184686 C14.5068624,22.3569533 13.4939095,22.2158044 12.4599809,22.1950217 C12.3612202,22.1932899 12.2607115,22.191558 12.1619508,22.191558 C5.57994219,22.191558 0.159464518,27.4287899 0.00302054781,34.0142973 C-0.156045388,40.6993883 5.99159084,46.8138219 12.7073197,46.9956703 C12.8751255,46.9991341 13.3706771,47 14.1371652,47 C22.2163163,47 60.6386058,46.8363365 68.636476,46.8363365 C69.3968461,46.8363365 69.8810359,46.8380684 70.0401018,46.8406662 C70.1353666,46.8432641 70.2315053,46.8449959 70.3258961,46.8449959 C77.1543695,46.8449959 82.81869,40.4681811 82.9943617,32.5240069 C83.1936311,24.7123222 78.0869154,18.248913 71.490923,17.624567" id="Fill-1" fill="#0095D3" mask="url(#mask-2)"></path>
                </g>
            </g>
        </g>
    </g>
</svg>