<?xml version="1.0" encoding="UTF-8"?>
<svg width="106px" height="62px" viewBox="0 0 106 62" version="1.1" xmlns="http://www.w3.org/2000/svg" xmlns:xlink="http://www.w3.org/1999/xlink">
    <title>icon</title>
    <g id="Designs" stroke="none" stroke-width="1" fill="none" fill-rule="evenodd">
        <g id="YTT-Op1" transform="translate(-667.000000, -1099.000000)" fill="#FFFFFF">
            <g id="Blog-Highlights" transform="translate(0.000000, 941.000000)">
                <g id="Blog-Feature-2" transform="translate(570.000000, 126.000000)">
                    <g id="icon" transform="translate(97.000000, 32.000000)">
                        <polygon id="Fill-1" points="45.2413793 53.1510417 45.2413793 58.3920404 40 58.3920404 40 61.1510417 48 61.1510417 48 53.1510417"></polygon>
                        <polygon id="Fill-2" points="12 61.1510417 23 61.1510417 23 58.1510417 12 58.1510417"></polygon>
                        <polygon id="Fill-3" points="26 61.1510417 37 61.1510417 37 58.1510417 26 58.1510417"></polygon>
                        <polygon id="Fill-4" points="0 53.1510417 0 61.1510417 8 61.1510417 8 58.3920404 2.75862069 58.3920404 2.75862069 53.1510417"></polygon>
                        <polygon id="Fill-5" points="0 37.1510417 3 37.1510417 3 26.1510417 0 26.1510417"></polygon>
                        <polygon id="Fill-6" points="0 22.1510417 3 22.1510417 3 11.1510417 0 11.1510417"></polygon>
                        <polygon id="Fill-7" points="45 22.1510417 48 22.1510417 48 11.1510417 45 11.1510417"></polygon>
                        <polygon id="Fill-8" points="0 0.151041667 0 8.15104167 2.75862069 8.15104167 2.75862069 2.90966236 8 2.90966236 8 0.151041667"></polygon>
                        <polygon id="Fill-9" points="12 3.15104167 23 3.15104167 23 0.151041667 12 0.151041667"></polygon>
                        <polygon id="Fill-10" points="26 3.15104167 37 3.15104167 37 0.151041667 26 0.151041667"></polygon>
                        <polygon id="Fill-11" points="40 0.151041667 40 2.90966236 45.2413793 2.90966236 45.2413793 8.15104167 48 8.15104167 48 0.151041667"></polygon>
                        <polygon id="Fill-12" points="0 50.1510417 3 50.1510417 3 39.1510417 0 39.1510417"></polygon>
                        <polygon id="Fill-13" points="45 50.1510417 48 50.1510417 48 39.1510417 45 39.1510417"></polygon>
                        <polygon id="Fill-14" points="58 0.151041667 58 25.2691781 60.7720668 25.2691781 60.7720668 2.92419752 103.229042 2.92419752 103.229042 57.3778858 60.7720668 57.3778858 60.7720668 36.3074477 58 36.3074477 58 60.1510417 106 60.1510417 106 0.151041667"></polygon>
                        <polyline id="Fill-15" points="42 32.4875482 81.9949373 32.4875482 81.9949373 36.1510417 91 31.1505069 81.9949373 26.1510417 81.9949373 29.8134655 42 29.8134655"></polyline>
                        <path d="M32.0016376,34.6802273 C32.8337672,33.0985618 33.1806769,31.5056149 33.0423665,29.8980019 C32.9029224,28.4291514 32.385959,27.0866536 31.4914763,25.8682522 C30.6208011,24.6893361 29.510917,23.7856884 28.161824,23.1573092 C26.7855223,22.5052388 25.3729426,22.2356111 23.922951,22.3472979 C21.8029476,22.5108795 20.0559288,23.2577145 18.6818945,24.5889308 C17.4337,25.7937944 16.6503191,27.2998738 16.3351528,29.1082973 C16.0335909,30.8772356 16.2229174,32.5705879 16.9031323,34.1906105 C17.6354971,35.8986287 18.7952637,37.1835909 20.3846994,38.0500096 C22.4786278,39.1804153 24.7108666,39.3688163 27.0825495,38.6152125 C29.3533339,37.8999657 30.992652,36.587928 32.0016376,34.6802273 L32.0016376,34.6802273 Z M38,32.8537534 C37.7845986,32.9045201 37.3560632,33.0229758 36.71326,33.2113768 C36.1951629,33.3625488 35.7541569,33.4629541 35.3891082,33.5125927 C35.2496641,33.7393507 35.047867,34.2030201 34.7825831,34.9058572 C34.5558448,35.5342364 34.3223043,35.9730865 34.0830954,36.2246639 C34.1715233,36.3622981 34.4050638,36.7639193 34.7825831,37.4295274 C35.0603376,37.9180161 35.3063487,38.3015869 35.5206164,38.5779835 C35.2689368,38.9412477 34.2724219,39.9768888 32.5310715,41.6837789 C31.6864713,41.2832858 30.8600101,40.8060786 30.0528216,40.2532854 C29.132264,40.7925409 28.2615888,41.1388827 27.4419298,41.2889266 C27.2650739,41.5777328 27.1006886,42.0481712 26.9499076,42.7013697 C26.7855223,43.4166164 26.6404098,43.8994643 26.5157037,44.1510417 L22.352788,44.1510417 C22.213344,43.8622354 22.0750336,43.4098475 21.9367232,42.7950061 C21.7848085,42.1429357 21.6578351,41.6837789 21.5580702,41.4209201 C19.9051478,40.6921356 19.0412748,40.302924 18.9653174,40.2532854 C18.599135,40.3661004 18.1717333,40.5736799 17.6797111,40.8748958 C17.1117316,41.2257502 16.7149395,41.4513801 16.4870675,41.5529136 C16.1208851,41.3137459 15.117568,40.3604596 13.4793836,38.6907985 C13.5553409,38.4144019 13.9895448,37.591981 14.7842627,36.2246639 C14.7343802,36.0734918 14.5382516,35.6211039 14.1981441,34.8686283 C13.9578015,34.315835 13.8070205,33.8205775 13.7435338,33.3805992 C13.3648808,33.3309606 12.8977998,33.2305553 12.3434246,33.0805114 C11.7006214,32.8921105 11.2528132,32.7725266 11,32.7217599 L11,28.4483299 C11.2154014,28.3986914 11.6439368,28.2791075 12.28674,28.0907066 C12.8037034,27.9395345 13.2458431,27.8402574 13.6120255,27.7894907 C13.7378653,27.5638608 13.9453309,27.1058321 14.2355559,26.4154047 C14.4872355,25.8118447 14.7151075,25.3673539 14.9169046,25.0774195 C14.2616308,23.8477366 13.7809456,23.0636728 13.4793836,22.7240998 C13.7310632,22.3608357 14.7343802,21.3251945 16.4870675,19.6183044 C17.5720104,20.1451502 18.3973379,20.6223574 18.9653174,21.0487979 C20.5173413,20.3707801 21.4254283,20.0266945 21.6895784,20.0142849 C21.7405946,19.8495751 21.8732365,19.3667271 22.0875042,18.5634847 C22.2394189,17.9870004 22.3709271,17.5154339 22.4842963,17.1510417 L26.647212,17.1510417 C26.7991266,17.5278436 27.0632768,18.4382602 27.4419298,19.8811633 C27.6063151,19.9567493 28.0541233,20.1327406 28.7853544,20.4091372 C29.3533339,20.6223574 29.7750672,20.8367058 30.0528216,21.0487979 C30.419004,20.9483926 30.8407373,20.7419413 31.3202889,20.4271876 C31.8882684,20.0763331 32.2918626,19.8495751 32.5310715,19.7502979 C32.9856819,20.0266945 33.5151159,20.4903639 34.1205072,21.1435625 C34.8267971,21.8712188 35.338092,22.3608357 35.6532583,22.612413 C35.0353964,23.7541002 34.5558448,24.5765211 34.2157373,25.0774195 C34.9344978,27.14983 35.2814075,28.0974755 35.2564662,27.9214842 C35.6475899,27.9587131 36.1135371,28.0591184 36.6554417,28.2227 C37.2993786,28.4099728 37.7471868,28.5295567 38,28.5803234 L38,32.8537534 Z" id="Fill-16"></path>
                    </g>
                </g>
            </g>
        </g>
    </g>
</svg>