<?xml version="1.0" encoding="UTF-8" standalone="no"?>

<svg
   version="1.1"
   id="svg2"
   xml:space="preserve"
   width="86.666664"
   height="126.22933"
   viewBox="0 0 86.666664 126.22933"
   sodipodi:docname="8f220fda5ab56941178f5de8379077cf.ai"
   xmlns:inkscape="http://www.inkscape.org/namespaces/inkscape"
   xmlns:sodipodi="http://sodipodi.sourceforge.net/DTD/sodipodi-0.dtd"
   xmlns="http://www.w3.org/2000/svg"
   xmlns:svg="http://www.w3.org/2000/svg"><defs
     id="defs6"><clipPath
       clipPathUnits="userSpaceOnUse"
       id="clipPath16"><path
         d="M 0,120 H 120 V 0 H 0 Z"
         id="path14" /></clipPath></defs><sodipodi:namedview
     id="namedview4"
     pagecolor="#ffffff"
     bordercolor="#666666"
     borderopacity="1.0"
     inkscape:pageshadow="2"
     inkscape:pageopacity="0.0"
     inkscape:pagecheckerboard="0" /><g
     id="g8"
     inkscape:groupmode="layer"
     inkscape:label="8f220fda5ab56941178f5de8379077cf"
     transform="matrix(1.3333333,0,0,-1.3333333,-38.747999,143.36026)"><g
       id="g10"><g
         id="g12"
         clip-path="url(#clipPath16)"><g
           id="g18"
           transform="translate(37.5708,44.943)"><path
             d="m 0,0 c -0.69,0 -1.25,0.56 -1.25,1.25 0,13.843 11.262,25.105 25.105,25.105 0.69,0 1.25,-0.56 1.25,-1.25 0,-0.69 -0.56,-1.25 -1.25,-1.25 C 11.391,23.855 1.25,13.714 1.25,1.25 1.25,0.56 0.69,0 0,0"
             style="fill:#0095d3;fill-opacity:1;fill-rule:nonzero;stroke:none"
             id="path20" /></g><g
           id="g22"
           transform="translate(61.561,15.3482)"><path
             d="M 0,0 C -16.542,0 -30,13.458 -30,30 -30,46.542 -16.542,60 0,60 16.542,60 30,46.542 30,30 30,13.458 16.542,0 0,0 m -15,75.593 c 0,7.763 6.062,14.079 13.514,14.079 H 1.486 C 8.938,89.672 15,83.356 15,75.593 V 58.829 C 10.511,61.169 5.412,62.5 0,62.5 c -5.413,0 -10.511,-1.331 -15,-3.671 z M 17.5,57.38 v 18.213 c 0,9.142 -7.184,16.579 -16.014,16.579 h -2.972 c -8.83,0 -16.014,-7.437 -16.014,-16.579 V 57.38 c -9.018,-5.776 -15,-15.876 -15,-27.38 0,-17.949 14.551,-32.5 32.5,-32.5 17.949,0 32.5,14.551 32.5,32.5 0,11.504 -5.982,21.604 -15,27.38"
             style="fill:#0095d3;fill-opacity:1;fill-rule:evenodd;stroke:none"
             id="path24" /></g><g
           id="g26"
           transform="translate(61.561,53.8155)"><path
             d="m 0,0 c -2.95,0 -5.341,-2.391 -5.341,-5.341 0,-1.976 1.075,-3.697 2.67,-4.621 v -5.548 c 0,-0.784 0.641,-1.425 1.424,-1.425 h 2.493 c 0.783,0 1.424,0.641 1.424,1.425 v 5.548 c 1.595,0.924 2.671,2.645 2.671,4.621 C 5.341,-2.391 2.95,0 0,0"
             style="fill:#0095d3;fill-opacity:1;fill-rule:evenodd;stroke:none"
             id="path28" /></g></g></g></g></svg>
