<?xml version="1.0" encoding="UTF-8"?>
<svg width="78px" height="54px" viewBox="0 0 78 54" version="1.1" xmlns="http://www.w3.org/2000/svg" xmlns:xlink="http://www.w3.org/1999/xlink">
    <title>icon</title>
    <defs>
        <polygon id="path-1" points="0.688569123 0.761755556 72.5975655 0.761755556 72.5975655 35 0.688569123 35"></polygon>
        <polygon id="path-3" points="0 0.643661017 60.454961 0.643661017 60.454961 46.8179746 0 46.8179746"></polygon>
    </defs>
    <g id="Designs" stroke="none" stroke-width="1" fill="none" fill-rule="evenodd">
        <g id="Home-Page-Carvel-Op1" transform="translate(-1001.000000, -864.000000)">
            <g id="Callout-6" transform="translate(890.000000, 822.000000)">
                <g id="icon" transform="translate(111.827586, 42.000000)">
                    <g id="Group-3" transform="translate(3.172414, 19.000000)">
                        <mask id="mask-2" fill="white">
                            <use xlink:href="#path-1"></use>
                        </mask>
                        <g id="Clip-2"></g>
                        <path d="M2.83745385,32.7175333 L60.8347505,33.0543111 L70.4747615,2.7062 L14.2134209,2.7062 L2.83745385,32.7175333 Z M61.0802231,35.0003111 L61.0713989,35.0003111 L2.35051978,34.6588667 C1.80662967,34.6557556 1.29723407,34.3959778 0.986783516,33.9627556 C0.676332967,33.5287556 0.603332967,32.9742 0.791047253,32.4787556 L12.4116846,1.82264444 C12.652344,1.18875556 13.2828714,0.761755556 13.9807835,0.761755556 L70.9263989,0.761755556 C71.4550473,0.761755556 71.9580253,1.00753333 72.2716846,1.41975556 C72.585344,1.83197778 72.6792011,2.36942222 72.5243769,2.85942222 L62.6790033,33.8562 C62.4608055,34.5414222 61.8190473,35.0003111 61.0802231,35.0003111 L61.0802231,35.0003111 Z" id="Fill-1" fill="#0095D3" mask="url(#mask-2)"></path>
                    </g>
                    <g id="Group-6" transform="translate(0.172414, 0.000000)">
                        <mask id="mask-4" fill="white">
                            <use xlink:href="#path-3"></use>
                        </mask>
                        <g id="Clip-5"></g>
                        <path d="M1.98051948,46.8179746 L0,46.8179746 L0,1.63902542 C0,1.08936441 0.443636364,0.643262712 0.99025974,0.643262712 L21.7310519,0.643262712 C21.9726753,0.643262712 22.2055844,0.731686441 22.3862078,0.892601695 L26.6007532,4.63029661 L60.454961,4.63029661 L60.454961,6.62182203 L26.226039,6.62182203 C25.9852078,6.62182203 25.7522987,6.53339831 25.5716753,6.37327966 L21.3563377,2.63478814 L1.98051948,2.63478814 L1.98051948,46.8179746 Z" id="Fill-4" fill="#0095D3" mask="url(#mask-4)"></path>
                    </g>
                    <path d="M8.1817953,27 L6.17241379,27 L6.17241379,12.0204602 C6.17241379,11.4571662 6.62251525,11 7.17710455,11 L66.167723,11 C66.7223123,11 67.1724138,11.4571662 67.1724138,12.0204602 L67.1724138,16.1055666 L65.1630323,16.1055666 L65.1630323,13.0409205 L8.1817953,13.0409205 L8.1817953,27 Z" id="Fill-7" fill="#0095D3"></path>
                </g>
            </g>
        </g>
    </g>
</svg>