<?xml version="1.0" encoding="UTF-8"?>
<svg width="115px" height="90px" viewBox="0 0 115 90" version="1.1" xmlns="http://www.w3.org/2000/svg" xmlns:xlink="http://www.w3.org/1999/xlink">
    <title>icon</title>
    <g id="Designs" stroke="none" stroke-width="1" fill="none" fill-rule="evenodd">
        <g id="YTT-Op1" transform="translate(-973.000000, -1088.000000)" fill="#FFFFFF" stroke="#FFFFFF" stroke-width="0.5">
            <g id="Blog-Highlights" transform="translate(0.000000, 941.000000)">
                <g id="Blog-Feature-3" transform="translate(890.000000, 126.000000)">
                    <g id="icon" transform="translate(83.279985, 22.000000)">
                        <polygon id="Fill-1" points="0.720015063 0 0.720015063 88 20.7200151 88 20.7200151 86.0473604 2.70571232 86.0473604 2.70571232 1.95263961 20.7200151 1.95263961 20.7200151 0"></polygon>
                        <polygon id="Fill-2" points="93.7200151 0 93.7200151 1.95263961 111.734318 1.95263961 111.734318 86.0473604 93.7200151 86.0473604 93.7200151 88 113.720015 88 113.720015 0"></polygon>
                        <path d="M43.7200151,81 L71.7200151,81 L71.7200151,19 L43.7200151,19 L43.7200151,81 Z M45.6768528,79.0522989 L69.7631773,79.0522989 L69.7631773,20.9477011 L45.6768528,20.9477011 L45.6768528,79.0522989 Z" id="Fill-3"></path>
                        <polygon id="Fill-4" points="51.7200151 28 62.7200151 28 62.7200151 26 51.7200151 26"></polygon>
                        <polygon id="Fill-5" points="51.7200151 36 62.7200151 36 62.7200151 34 51.7200151 34"></polygon>
                        <polygon id="Fill-6" points="51.7200151 43 62.7200151 43 62.7200151 41 51.7200151 41"></polygon>
                        <polygon id="Fill-7" points="51.7200151 52 62.7200151 52 62.7200151 50 51.7200151 50"></polygon>
                        <polygon id="Fill-8" points="51.7200151 59 62.7200151 59 62.7200151 57 51.7200151 57"></polygon>
                        <polygon id="Fill-9" points="51.7200151 67 62.7200151 67 62.7200151 65 51.7200151 65"></polygon>
                        <polygon id="Fill-10" points="51.7200151 75 62.7200151 75 62.7200151 73 51.7200151 73"></polygon>
                        <polygon id="Fill-11" points="45.6164637 17 48.3351761 9.83584617 66.9061337 9.83584617 69.8087015 17 71.7074973 17 71.7200151 16.9949206 68.0765492 8 47.1342485 8 43.7200151 17"></polygon>
                        <polygon id="Fill-12" points="95.7200151 77 75.7200151 77 75.7200151 75.0566592 93.7336021 75.0566592 93.7336021 24.9433408 75.7200151 24.9433408 75.7200151 23 95.7200151 23"></polygon>
                        <polygon id="Fill-13" points="75.7200151 31 86.7200151 31 86.7200151 29 75.7200151 29"></polygon>
                        <polygon id="Fill-14" points="75.7200151 38 86.7200151 38 86.7200151 36 75.7200151 36"></polygon>
                        <polygon id="Fill-15" points="75.7200151 46 86.7200151 46 86.7200151 44 75.7200151 44"></polygon>
                        <polygon id="Fill-16" points="75.7200151 54 86.7200151 54 86.7200151 52 75.7200151 52"></polygon>
                        <polygon id="Fill-17" points="75.7200151 62 86.7200151 62 86.7200151 60 75.7200151 60"></polygon>
                        <polygon id="Fill-18" points="75.7200151 69 86.7200151 69 86.7200151 67 75.7200151 67"></polygon>
                        <polygon id="Fill-19" points="91.5149283 11 75.7200151 11 75.7200151 12.8364237 90.1649081 12.8364237 93.5141208 20 95.7046739 20 95.7200151 19.9941954"></polygon>
                        <polygon id="Fill-20" points="40.7200151 77 20.7200151 77 20.7200151 23 40.7200151 23 40.7200151 24.9433408 22.706428 24.9433408 22.706428 75.0566592 40.7200151 75.0566592"></polygon>
                        <polygon id="Fill-21" points="29.7200151 31 40.7200151 31 40.7200151 29 29.7200151 29"></polygon>
                        <polygon id="Fill-22" points="29.7200151 38 40.7200151 38 40.7200151 36 29.7200151 36"></polygon>
                        <polygon id="Fill-23" points="29.7200151 46 40.7200151 46 40.7200151 44 29.7200151 44"></polygon>
                        <polygon id="Fill-24" points="29.7200151 54 40.7200151 54 40.7200151 52 29.7200151 52"></polygon>
                        <polygon id="Fill-25" points="29.7200151 62 40.7200151 62 40.7200151 60 29.7200151 60"></polygon>
                        <polygon id="Fill-26" points="29.7200151 69 40.7200151 69 40.7200151 67 29.7200151 67"></polygon>
                        <polygon id="Fill-27" points="24.9251019 11 40.7200151 11 40.7200151 12.8364237 26.275122 12.8364237 22.9259093 20 20.7353562 20 20.7200151 19.9941954"></polygon>
                    </g>
                </g>
            </g>
        </g>
    </g>
</svg>