<?xml version="1.0" encoding="UTF-8"?>
<svg width="68px" height="73px" viewBox="0 0 68 73" version="1.1" xmlns="http://www.w3.org/2000/svg" xmlns:xlink="http://www.w3.org/1999/xlink">
    <title>icon</title>
    <defs>
        <polygon id="path-1" points="0 0.101431579 57.8445741 0.101431579 57.8445741 71.2770463 0 71.2770463"></polygon>
    </defs>
    <g id="Designs" stroke="none" stroke-width="1" fill="none" fill-rule="evenodd">
        <g id="Home-Page-Carvel-Op1" transform="translate(-366.000000, -516.000000)">
            <g id="Callout-1-" transform="translate(250.000000, 483.000000)">
                <g id="icon" transform="translate(116.775000, 33.000000)">
                    <polygon id="Fill-1" fill="#0095D3" points="16.225 22 46.225 22 46.225 20 16.225 20"></polygon>
                    <polygon id="Fill-2" fill="#0095D3" points="16.225 31 46.225 31 46.225 29 16.225 29"></polygon>
                    <polygon id="Fill-3" fill="#0095D3" points="16.225 38 46.225 38 46.225 36 16.225 36"></polygon>
                    <polygon id="Fill-4" fill="#0095D3" points="16.225 45 46.225 45 46.225 43 16.225 43"></polygon>
                    <g id="Group-14" transform="translate(0.225000, 0.000000)">
                        <path d="M15.45588,53.1999411 L45.16908,53.1999411 L45.7607506,52.6174779 C45.9199271,52.46072 46.1124918,52.2870568 46.5147035,51.9842989 L46.5147035,51.2788884 L15.45588,51.2788884 L15.45588,53.1999411 Z" id="Fill-5" fill="#0095D3"></path>
                        <g id="Group-9">
                            <mask id="mask-2" fill="white">
                                <use xlink:href="#path-1"></use>
                            </mask>
                            <g id="Clip-8"></g>
                            <path d="M6.15337412,11.3040884 C3.83095059,11.3040884 1.94102118,9.64122526 1.94102118,7.59722526 L1.94102118,5.72996211 C1.94102118,3.68596211 3.83095059,2.02233053 6.15337412,2.02233053 L47.0314447,2.02233053 C46.0810447,3.01359368 45.5041271,4.31145684 45.5041271,5.72996211 L45.5041271,7.59722526 C45.5041271,9.01573053 46.0802682,10.3128253 47.0314447,11.3040884 L6.15337412,11.3040884 Z M43.0295153,69.3690568 L43.0201976,69.3559937 L10.0792094,69.3559937 C8.58062118,69.3559937 7.36156235,68.1495726 7.36156235,66.66652 L7.36156235,13.2251411 L51.6576565,13.2251411 C52.1934212,13.2251411 52.6282447,12.7948253 52.6282447,12.2646147 C52.6282447,11.7344042 52.1934212,11.3040884 51.6576565,11.3040884 C49.3344565,11.3040884 47.4453035,9.64122526 47.4453035,7.59722526 L47.4453035,5.72996211 C47.4453035,3.89574105 48.9671859,2.37273053 50.95728,2.07842526 L53.1857506,2.07842526 C54.6843388,2.07842526 55.9033976,3.28484632 55.9033976,4.76789895 L55.9033976,48.50412 L57.8445741,48.8622042 L57.8445741,4.76789895 C57.8445741,2.23210947 55.7481035,0.157372632 53.1857506,0.157372632 L51.9348565,0.157372632 C51.8455624,0.129709474 51.7554918,0.101277895 51.6576565,0.101277895 L6.15337412,0.101277895 C2.76019765,0.101277895 -0.000155294118,2.62630947 -0.000155294118,5.72996211 L-0.000155294118,7.59722526 C-0.000155294118,10.4726568 2.37196235,12.8486147 5.42038588,13.1813411 L5.42038588,66.66652 C5.42038588,69.2023095 7.51685647,71.2770463 10.0792094,71.2770463 L44.35728,71.2770463 C44.0327153,70.8321305 43.6079859,70.2258463 43.0295153,69.3690568 L43.0295153,69.3690568 Z" id="Fill-7" fill="#0095D3" mask="url(#mask-2)"></path>
                        </g>
                        <polygon id="Fill-10" fill="#0095D3" points="15.45588 58.9840768 15.45588 60.9051295 41.5794565 60.9051295 41.9412918 58.9840768"></polygon>
                        <path d="M61.3559294,65.8241 C61.9903059,64.6253632 62.2543059,63.4181737 62.1487059,62.2009947 C62.0431059,61.0875526 61.6486588,60.0701632 60.9669176,59.1472895 C60.3038118,58.2536158 59.4582353,57.5689526 58.4301882,57.0933 C57.3819529,56.5984368 56.3057647,56.3940368 55.2008471,56.4793316 C53.5857882,56.6030474 52.2549176,57.1693737 51.2074588,58.1775421 C50.2562824,59.0904263 49.6599529,60.2315316 49.4192471,61.6016263 C49.1894118,62.9425211 49.3338353,64.2257842 49.8525176,65.4529526 C50.4100235,66.7469737 51.2944235,67.7213316 52.5049412,68.3775632 C54.0998118,69.2335842 55.8010588,69.3765105 57.6079059,68.8055737 C59.3378824,68.2630684 60.5872235,67.2695 61.3559294,65.8241 L61.3559294,65.8241 Z M65.9262353,64.4401737 C65.7624,64.4785947 65.4355059,64.5685 64.9455529,64.7114263 C64.5518824,64.8251526 64.2148941,64.9012263 63.9369176,64.9396474 C63.8313176,65.1102368 63.6768,65.4621737 63.4749176,65.9954579 C63.3025412,66.4711105 63.1239529,66.8038368 62.9414824,66.9936368 C63.0090353,67.0989105 63.1868471,67.4032053 63.4749176,67.9072895 C63.6861176,68.2776684 63.8740235,68.5681316 64.0378588,68.7771421 C63.8452941,69.0530053 63.0866824,69.8375632 61.7596941,71.1308158 C61.116,70.8272895 60.4862824,70.4653632 59.8713176,70.0465737 C59.1701647,70.4561421 58.5070588,70.7174053 57.882,70.8319 C57.7476706,71.0501316 57.6226588,71.4074474 57.5069647,71.9015421 C57.3819529,72.4432789 57.2716941,72.8098158 57.1754118,72.9996158 L54.0043059,72.9996158 C53.8987059,72.7813842 53.7923294,72.4386684 53.6875059,71.9730053 C53.5718118,71.4789105 53.4755294,71.1308158 53.3986588,70.9310263 C52.1392235,70.3800684 51.4815529,70.0849947 51.4240941,70.0465737 C51.1445647,70.1326368 50.8184471,70.2893947 50.4434118,70.5176158 C50.0109176,70.7842579 49.7088706,70.9548474 49.5349412,71.0309211 C49.2561882,70.8511105 48.4921412,70.1280263 47.2435765,68.8624368 C47.3010353,68.6534263 47.6325882,68.0302368 48.2382353,66.9936368 C48.1994118,66.8799105 48.0503294,66.5371947 47.7909882,65.9662579 C47.6085176,65.5482368 47.4928235,65.1724789 47.4446824,64.8397526 C47.1566118,64.8021 46.8009882,64.7252579 46.3778118,64.6115316 C45.8886353,64.4686053 45.5469882,64.3787 45.3544235,64.3402789 L45.3544235,61.1013842 C45.5182588,61.0645 45.8451529,60.9738263 46.3351059,60.8301316 C46.7295529,60.7171737 47.0649882,60.6403316 47.3445176,60.6026789 C47.4400235,60.4313211 47.5984235,60.0839947 47.8197176,59.5614684 C48.0115059,59.1042579 48.1854353,58.7669211 48.3384,58.5479211 C47.8391294,57.6165947 47.4741882,57.0218368 47.2435765,56.7644158 C47.4353647,56.4893211 48.1994118,55.7047632 49.5349412,54.4107421 C50.3618824,54.8103211 50.9908235,55.1722474 51.4240941,55.4957526 C52.6058824,54.9816789 53.2977176,54.7204158 53.4996,54.7111947 C53.5376471,54.5867105 53.6393647,54.2201737 53.8016471,53.6115842 C53.9173412,53.1751211 54.0190588,52.8178053 54.1052471,52.5419421 L57.2763529,52.5419421 C57.3920471,52.8270263 57.5931529,53.5170684 57.882,54.6105316 C58.0070118,54.6673947 58.3478824,54.8011 58.9053882,55.0101105 C59.3378824,55.1722474 59.6593412,55.3336158 59.8713176,55.4957526 C60.1500706,55.4189105 60.4715294,55.2621526 60.8372471,55.0239421 C61.2697412,54.7588368 61.5772235,54.5867105 61.7596941,54.5106368 C62.106,54.7204158 62.5089882,55.0723526 62.9709882,55.5664474 C63.5090824,56.1181737 63.8980941,56.4893211 64.1380235,56.6798895 C63.6674824,57.5451316 63.3025412,58.1683211 63.0432,58.5479211 C63.5906118,60.1178053 63.8553882,60.8362789 63.8359765,60.7025737 C64.1341412,60.7310053 64.4897647,60.8070789 64.9020706,60.9307947 C65.3928,61.0729526 65.7336706,61.1636263 65.9262353,61.2012789 L65.9262353,64.4401737 Z" id="Fill-12" fill="#0095D3"></path>
                    </g>
                </g>
            </g>
        </g>
    </g>
</svg>