<?xml version="1.0" encoding="UTF-8"?>
<svg width="55px" height="78px" viewBox="0 0 55 78" version="1.1" xmlns="http://www.w3.org/2000/svg" xmlns:xlink="http://www.w3.org/1999/xlink">
    <title>Group 8</title>
    <defs>
        <polygon id="path-1" points="0 0.269962105 52.9999185 0.269962105 52.9999185 77.9998358 0 77.9998358"></polygon>
    </defs>
    <g id="Designs" stroke="none" stroke-width="1" fill="none" fill-rule="evenodd">
        <g id="YTT-Op1" transform="translate(-1013.000000, -550.000000)">
            <g id="Callout-3" transform="translate(890.000000, 512.000000)">
                <g id="Group-8" transform="translate(123.755208, 38.000000)">
                    <path d="M7.28823693,51 C6.71225515,51 6.24479167,50.5325365 6.24479167,49.9565547 C6.24479167,38.4010245 15.6458161,29 27.2013464,29 C27.7773282,29 28.2447917,29.4674635 28.2447917,30.0434453 C28.2447917,30.6194271 27.7773282,31.0868905 27.2013464,31.0868905 C16.796945,31.0868905 8.3316822,39.5521533 8.3316822,49.9565547 C8.3316822,50.5325365 7.86421872,51 7.28823693,51" id="Fill-1" fill="#0095D3"></path>
                    <g id="Group-5" transform="translate(0.244792, 0.000000)">
                        <mask id="mask-2" fill="white">
                            <use xlink:href="#path-1"></use>
                        </mask>
                        <g id="Clip-4"></g>
                        <path d="M26.4999185,75.9472042 C13.0118262,75.9472042 2.03838,64.8974779 2.03838,51.3156253 C2.03838,37.7337726 13.0118262,26.6840463 26.4999185,26.6840463 C39.9880108,26.6840463 50.9614569,37.7337726 50.9614569,51.3156253 C50.9614569,64.8974779 39.9880108,75.9472042 26.4999185,75.9472042 L26.4999185,75.9472042 Z M14.2691492,13.8813726 C14.2691492,7.50754105 19.2120108,2.32259368 25.2882569,2.32259368 L27.71158,2.32259368 C33.7878262,2.32259368 38.7306877,7.50754105 38.7306877,13.8813726 L38.7306877,27.6454989 C35.0704262,25.7242358 30.9135954,24.6314147 26.4999185,24.6314147 C22.0870569,24.6314147 17.9294108,25.7242358 14.2691492,27.6454989 L14.2691492,13.8813726 Z M40.7691492,28.8360253 L40.7691492,13.8813726 C40.7691492,6.37613053 34.9114262,0.269962105 27.71158,0.269962105 L25.2882569,0.269962105 C18.0884108,0.269962105 12.2306877,6.37613053 12.2306877,13.8813726 L12.2306877,28.8360253 C4.87754923,33.5776042 -8.1538461e-05,41.8710568 -8.1538461e-05,51.3156253 C-8.1538461e-05,66.05352 11.86458,77.9998358 26.4999185,77.9998358 C41.1352569,77.9998358 52.9999185,66.05352 52.9999185,51.3156253 C52.9999185,41.8710568 48.1222877,33.5776042 40.7691492,28.8360253 L40.7691492,28.8360253 Z" id="Fill-3" fill="#0095D3" mask="url(#mask-2)"></path>
                    </g>
                    <path d="M26.7447917,44 C24.2593021,44 22.2447917,45.9774432 22.2447917,48.4153528 C22.2447917,50.0488928 23.1505209,51.4716268 24.4952129,52.2354886 L24.4952129,56.822793 C24.4952129,57.4700915 25.0352803,58 25.6949883,58 L27.7954376,58 C28.4551455,58 28.9952129,57.4700915 28.9952129,56.822793 L28.9952129,52.2354886 C30.3390624,51.4716268 31.2447917,50.0488928 31.2447917,48.4153528 C31.2447917,45.9774432 29.2302813,44 26.7447917,44" id="Fill-6" fill="#0095D3"></path>
                </g>
            </g>
        </g>
    </g>
</svg>