<?xml version="1.0" encoding="UTF-8"?>
<svg width="68px" height="69px" viewBox="0 0 68 69" version="1.1" xmlns="http://www.w3.org/2000/svg" xmlns:xlink="http://www.w3.org/1999/xlink">
    <title>icon</title>
    <defs>
        <polygon id="path-1" points="0 0 67.9997137 0 67.9997137 68 0 68"></polygon>
    </defs>
    <g id="Designs" stroke="none" stroke-width="1" fill="none" fill-rule="evenodd">
        <g id="YTT-Op1" transform="translate(-366.000000, -546.000000)">
            <g id="Callout-1-" transform="translate(250.000000, 512.000000)">
                <g id="icon" transform="translate(116.000000, 34.000000)">
                    <g id="Group-3" transform="translate(0.000000, 0.500000)">
                        <mask id="mask-2" fill="white">
                            <use xlink:href="#path-1"></use>
                        </mask>
                        <g id="Clip-2"></g>
                        <path d="M33.9997137,0 C15.2224084,0 -0.000286315789,15.2226947 -0.000286315789,34 C-0.000286315789,52.7773053 15.2224084,68 33.9997137,68 C52.7770189,68 67.9997137,52.7773053 67.9997137,34 C67.9997137,15.2226947 52.7770189,0 33.9997137,0 M33.9997137,1.78947368 C51.7605979,1.78947368 66.21024,16.2391158 66.21024,34 C66.21024,51.7608842 51.7605979,66.2105263 33.9997137,66.2105263 C16.2395453,66.2105263 1.78918737,51.7608842 1.78918737,34 C1.78918737,16.2391158 16.2395453,1.78947368 33.9997137,1.78947368" id="Fill-1" fill="#0095D3" mask="url(#mask-2)"></path>
                    </g>
                    <path d="M48,41 C48,44.0374667 45.5382,46.5 42.5,46.5 C39.4625333,46.5 37,44.0374667 37,41 C37,37.9618 39.4625333,35.5 42.5,35.5 C45.5382,35.5 48,37.9618 48,41" id="Fill-4" fill="#0095D3"></path>
                    <path d="M29,49 C29,52.0374667 26.5382,54.5 23.5,54.5 C20.4625333,54.5 18,52.0374667 18,49 C18,45.9625333 20.4625333,43.5 23.5,43.5 C26.5382,43.5 29,45.9625333 29,49" id="Fill-6" fill="#0095D3"></path>
                    <path d="M56,22 C56,25.0374667 53.5382,27.5 50.5,27.5 C47.4618,27.5 45,25.0374667 45,22 C45,18.9625333 47.4618,16.5 50.5,16.5 C53.5382,16.5 56,18.9625333 56,22" id="Fill-8" fill="#0095D3"></path>
                    <path d="M23.5,16.5 C19.9105143,16.5 17,19.4097714 17,23 C17,26.5902286 19.9105143,29.5 23.5,29.5 C27.0902286,29.5 30,26.5902286 30,23 C30,19.4097714 27.0902286,16.5 23.5,16.5 M23.5,18.3571429 C26.0598857,18.3571429 28.1428571,20.4401143 28.1428571,23 C28.1428571,25.5598857 26.0598857,27.6428571 23.5,27.6428571 C20.9401143,27.6428571 18.8571429,25.5598857 18.8571429,23 C18.8571429,20.4401143 20.9401143,18.3571429 23.5,18.3571429" id="Fill-10" fill="#0095D3"></path>
                    <polygon id="Fill-12" fill="#0095D3" points="22 42.5 24 42.5 24 30.5 22 30.5"></polygon>
                    <polygon id="Fill-14" fill="#0095D3" points="31 23.5 43 23.5 43 21.5 31 21.5"></polygon>
                    <polygon id="Fill-15" fill="#0095D3" points="36.7984596 36.5 29 28.7010422 30.2015404 27.5 38 35.2982781"></polygon>
                </g>
            </g>
        </g>
    </g>
</svg>