<?xml version="1.0" encoding="UTF-8"?>
<svg width="79px" height="75px" viewBox="0 0 79 75" version="1.1" xmlns="http://www.w3.org/2000/svg" xmlns:xlink="http://www.w3.org/1999/xlink">
    <title>icon</title>
    <defs>
        <polygon id="path-1" points="0.000101881313 0.530664894 76.3354999 0.530664894 76.3354999 75 0.000101881313 75"></polygon>
    </defs>
    <g id="Designs" stroke="none" stroke-width="1" fill="none" fill-rule="evenodd">
        <g id="Home-Page-Carvel-Op1" transform="translate(-361.000000, -849.000000)">
            <g id="Callout-4" transform="translate(250.000000, 822.000000)">
                <g id="icon" transform="translate(111.562500, 27.000000)">
                    <g id="Group-3" transform="translate(0.437500, 0.000000)">
                        <mask id="mask-2" fill="white">
                            <use xlink:href="#path-1"></use>
                        </mask>
                        <g id="Clip-2"></g>
                        <path d="M33.1626969,53.5883777 C33.115374,53.6378457 33.067249,53.6857181 33.0223323,53.7367819 C32.9148531,53.8580585 32.8161969,53.9873138 32.7143323,54.1149734 C32.6333219,54.2155053 32.5491031,54.3120479 32.4721031,54.4157713 C32.374249,54.549016 32.2844156,54.6886436 32.192176,54.8266755 C32.1215927,54.9319947 32.0461969,55.0341223 31.979624,55.1418351 C31.8905927,55.28625 31.8111865,55.4370479 31.7285719,55.5854521 C31.6684156,55.6947606 31.6034469,55.7992819 31.547301,55.910984 C31.4662906,56.0689628 31.3973115,56.2341223 31.3243219,56.3968883 C31.276999,56.5046011 31.2232594,56.6099202 31.1783427,56.7192287 C31.1053531,56.9003457 31.0443948,57.0878457 30.9810302,57.27375 C30.9481448,57.3710904 30.9080406,57.4652394 30.8783635,57.5641755 C30.7901344,57.8514096 30.7131344,58.1434309 30.6489677,58.4410372 C30.0032906,58.2631117 29.3183115,58.167367 28.6188948,58.1538032 C28.5515198,58.1522074 28.4841448,58.1514096 28.4167698,58.1514096 C28.3052802,58.1514096 28.1961969,58.1633777 28.0847073,58.1681649 C27.9507594,58.17375 27.8168115,58.1761436 27.6852698,58.1881117 C27.542499,58.2008777 27.4029365,58.2224202 27.2625719,58.242367 C27.1326344,58.2599202 27.0018948,58.2758777 26.8743635,58.3006117 C26.7356031,58.3269415 26.600051,58.3620479 26.4636969,58.3955585 C26.339374,58.4258777 26.2126448,58.4538032 26.089926,58.4905053 C25.955176,58.5296011 25.8252385,58.5782713 25.6936969,58.6245479 C25.5741865,58.6660372 25.453874,58.705133 25.3367698,58.7530053 C25.2076344,58.804867 25.0825094,58.8663032 24.9565823,58.9245479 C24.8426865,58.9772074 24.7279885,59.0266755 24.617301,59.0849202 C24.4945823,59.1495479 24.376676,59.2221543 24.2571656,59.2915691 C24.1504885,59.3553989 24.0414052,59.4144415 23.9371344,59.4822606 C23.8208323,59.5580585 23.7101448,59.6418351 23.5986552,59.7232181 C23.4983948,59.7958245 23.3965302,59.8644415 23.3002802,59.9410372 C23.1911969,60.0280053 23.0893323,60.1213564 22.9850615,60.2139096 C22.893624,60.2944947 22.7989781,60.3726862 22.7099469,60.4572606 C22.6096865,60.5538032 22.5166448,60.6583245 22.4211969,60.7604521 C22.3377802,60.849016 22.2511552,60.9351862 22.171749,61.0277394 C22.0803115,61.1338564 21.9976969,61.2471543 21.911874,61.3580585 C21.8372802,61.4538032 21.7594781,61.5471543 21.6888948,61.6468883 C21.6062802,61.7633777 21.5332906,61.88625 21.4578948,62.0075266 C21.3937281,62.1088564 21.325551,62.2069947 21.2661969,62.311516 C21.1940094,62.4375798 21.1314469,62.5708245 21.065676,62.7016755 C21.0135406,62.8069947 20.9549885,62.9099202 20.9068635,63.017633 C20.8451031,63.1556649 20.7945719,63.298484 20.7408323,63.4397074 C20.699124,63.5474202 20.6526031,63.6519415 20.6157073,63.7620479 C20.565176,63.9120479 20.5274781,64.0684309 20.4849677,64.2224202 C20.4560927,64.3285372 20.420801,64.4322606 20.3959365,64.5399734 C20.3574365,64.7123138 20.3317698,64.8902394 20.3028948,65.0665691 C20.2884573,65.1607181 20.265999,65.2524734 20.2539677,65.3474202 C20.2194781,65.6210904 20.198624,65.89875 20.1922073,66.1803989 C20.1448844,68.1671011 20.9140823,70.0788032 22.1757594,71.6123138 C22.5358948,72.0503457 22.9361344,72.4572606 23.3692594,72.8258777 C23.5858219,73.010984 23.8104052,73.1857181 24.0422073,73.3508777 C25.4330198,74.3378457 27.0821031,74.9506117 28.7857281,74.9968883 C28.841874,74.9976862 28.9557698,74.998484 29.112176,74.9992819 L29.1242073,74.9992819 C29.285426,74.9992819 29.4907594,75.0000798 29.7458219,75.0000798 L29.7530406,75.0000798 L29.7642698,75.0000798 C30.2655719,75.0000798 30.9361135,74.9992819 31.7478219,74.9976862 C31.8103844,74.9976862 31.8777594,74.9968883 31.941926,74.9968883 C33.2822073,74.9936968 34.9762073,74.9889096 36.8963948,74.9833245 C37.1145615,74.9825266 37.3391448,74.9817287 37.562124,74.9809309 C37.793926,74.980133 38.0281344,74.9793351 38.264749,74.9785372 C38.3249052,74.9785372 38.3850615,74.9785372 38.4452177,74.9785372 C39.9948427,74.9729521 41.653551,74.967367 43.3676031,74.9617819 C43.799926,74.9601862 44.2346552,74.9585904 44.6733948,74.9569947 C47.4919156,74.9474202 50.411499,74.93625 53.1859052,74.9266755 C53.684801,74.9250798 54.1788844,74.923484 54.6673531,74.9218883 C55.022676,74.9202926 55.3747906,74.9194947 55.7236969,74.9178989 C55.9017594,74.9171011 56.0774156,74.9171011 56.253874,74.9163032 C56.6332594,74.9147074 57.0086344,74.9139096 57.3783948,74.9131117 C57.4971031,74.9123138 57.6174156,74.9123138 57.7353219,74.911516 C57.9029573,74.9107181 58.0713948,74.9107181 58.236624,74.9099202 C58.2927698,74.9099202 58.3473115,74.9099202 58.4034573,74.9091223 C58.7892594,74.9083245 59.1662385,74.9067287 59.535999,74.9059309 C60.6420719,74.9019415 61.672749,74.89875 62.6023635,74.8963564 C62.6689365,74.8963564 62.7355094,74.8963564 62.8012802,74.8963564 C63.0844156,74.8955585 63.3563219,74.8947606 63.6186031,74.8939628 C63.6980094,74.8939628 63.7726031,74.8931649 63.8496031,74.8931649 C64.0549365,74.8931649 64.252249,74.892367 64.4431448,74.892367 C64.5081135,74.8915691 64.5762906,74.8915691 64.6396552,74.8915691 C65.1529885,74.8907713 65.609374,74.8899734 66.0015927,74.8891755 L66.1170927,74.8891755 C66.2863323,74.8891755 66.4451448,74.8891755 66.5871135,74.8891755 L66.6320302,74.8891755 L66.9496552,74.8891755 C66.976926,74.8891755 67.0001865,74.8891755 67.0258531,74.8891755 L67.2015094,74.8891755 C67.2327906,74.8899734 67.2616656,74.8899734 67.2889365,74.8899734 C67.3282385,74.8899734 67.3627281,74.8899734 67.3948115,74.8907713 C67.4180719,74.8907713 67.4429365,74.8907713 67.4629885,74.8907713 C67.4942698,74.8907713 67.5183323,74.8915691 67.5383844,74.8915691 C67.5480094,74.8915691 67.5616448,74.892367 67.5688635,74.892367 L67.5696656,74.892367 C67.6346344,74.8939628 67.698801,74.8947606 67.7621656,74.8947606 C67.880874,74.8947606 67.996374,74.8796011 68.1134781,74.874016 C68.2530406,74.867633 68.391801,74.8644415 68.5297594,74.8492819 C68.6773427,74.8341223 68.8217177,74.8077926 68.9660927,74.7830585 C69.1016448,74.7607181 69.237999,74.742367 69.3711448,74.7120479 C69.5147177,74.680133 69.6542802,74.6370479 69.7954469,74.5963564 C69.9253844,74.5588564 70.0577281,74.5253457 70.1852594,74.4814628 C70.3248219,74.4327926 70.4587698,74.37375 70.5943219,74.3178989 C70.7194469,74.2668351 70.846176,74.2189628 70.9688948,74.1607181 C71.1020406,74.0976862 71.230374,74.023484 71.3611135,73.9524734 C71.4798219,73.8878457 71.6001344,73.8280053 71.7156344,73.7569947 C71.8431656,73.6788032 71.9650823,73.5910372 72.0886031,73.5056649 C72.2008948,73.4290691 72.3147906,73.3564628 72.423874,73.273484 C72.5433844,73.1825266 72.6572802,73.0819947 72.7727802,72.9838564 C72.8778531,72.8952926 72.9853323,72.8107181 73.0863948,72.7165691 C73.1994885,72.6120479 73.3045615,72.4979521 73.4128427,72.3870479 C73.5090927,72.2881117 73.607749,72.1931649 73.7007906,72.0902394 C73.8050615,71.9729521 73.9013115,71.8468883 74.0007698,71.7232181 C74.0873948,71.6155053 74.1788323,71.5117819 74.2614469,71.3992819 C74.3568948,71.2700266 74.4435198,71.1319947 74.5333531,70.9971543 C74.6103531,70.8806649 74.6921656,70.7689628 74.7651552,70.648484 C74.8517802,70.5064628 74.9279781,70.3556649 75.0081865,70.2080585 C75.0739573,70.0867819 75.1445406,69.9686968 75.206301,69.8442287 C75.282499,69.6894415 75.3474677,69.5282713 75.4164469,69.3678989 C75.4717906,69.2418351 75.5311448,69.1181649 75.581676,68.9889096 C75.6466448,68.8213564 75.6995823,68.6482181 75.7565302,68.4758777 C75.7990406,68.3466223 75.8479677,68.2205585 75.8864677,68.0889096 C75.9402073,67.9038032 75.9803115,67.7123138 76.0252281,67.5232181 C76.0549052,67.3979521 76.090999,67.2758777 76.1158635,67.149016 C76.158374,66.9343883 76.1864469,66.7133777 76.216926,66.4931649 C76.2321656,66.38625 76.2538219,66.2825266 76.2658531,66.174016 C76.3019469,65.8436968 76.3244052,65.5085904 76.331624,65.1686968 C76.3741344,63.5107181 76.0653323,61.9421011 75.485426,60.5561968 C75.253624,60.0016755 74.9777073,59.4766755 74.6640927,58.9867819 C74.349676,58.4968883 73.9975615,58.0421011 73.6117594,57.6280053 C73.2259573,57.2139096 72.8064677,56.8413032 72.3597073,56.5157713 C71.240801,55.7019415 69.9446344,55.1825266 68.5498115,55.0500798 C67.9458427,48.4444947 62.9456552,43.2343883 56.7367281,43.0835904 C56.6364677,43.0811968 56.5362073,43.0803989 56.4359469,43.0803989 C56.322051,43.0803989 56.2097594,43.0907713 56.0958635,43.0939628 C55.9442698,43.09875 55.792676,43.1019415 55.6426865,43.1131117 C55.513551,43.1218883 53.6246448,43.0157713 53.4971135,43.030133 C53.4971135,43.030133 48.1993531,58.0907713 33.2757906,52.7322606 M53.0888531,30.1827926 C54.9769573,28.39875 56.2129677,25.7043351 56.2795406,22.674016 C56.3998531,17.9601862 53.6928219,13.967633 49.9615302,12.8242819 L48.7070719,12.4796011 L49.8813219,14.911516 C52.5249885,16.0030053 54.3649677,19.0827926 54.2751344,22.630133 C54.2221969,25.02375 53.2821552,27.1668351 51.8504365,28.5982181 M26.2655823,30.4851862 C26.2070302,30.4851862 26.147676,30.4851862 26.089124,30.485984 M26.089124,30.485984 C18.995499,30.5107181 12.0879573,30.5346543 9.58625937,30.5346543 C9.08736354,30.5346543 8.76572812,30.5338564 8.67188437,30.5322606 C5.16517604,30.436516 1.92636354,27.1341223 2.00657187,23.7351862 C2.08597812,20.3705585 4.88605104,17.6338564 8.24758229,17.6338564 L8.40960312,17.6354521 C8.95020729,17.6466223 9.46755104,17.7192287 9.94880104,17.8516755 L11.998926,18.417367 L12.4448844,16.3476862 C13.2758427,12.4931649 16.7119677,9.6950266 20.6157073,9.69582447 C20.6846865,9.69582447 20.7536656,9.69662234 20.8170302,9.69821809 C22.028176,9.73093085 23.1671344,10.0014096 24.2010198,10.5000798 L26.1597073,11.4447606 L26.945749,9.42614362 C28.5795927,5.23412234 32.2651656,2.52534574 36.3349365,2.52534574 C36.417551,2.52534574 36.5001656,2.52614362 36.5875927,2.52853723 C40.3269052,2.61949468 43.6042177,4.97800532 45.3022281,8.45593085 L46.8558635,9.02401596 L47.9250406,9.49875 C46.360176,4.42986702 41.7361656,0.658324468 36.6365198,0.534654255 C36.5362594,0.532260638 36.4351969,0.530664894 36.3349365,0.530664894 C31.3018635,0.530664894 26.9513635,3.89289894 25.0760927,8.70566489 C23.7967698,8.0881117 22.3810927,7.7450266 20.872374,7.70433511 C20.786551,7.70194149 20.7007281,7.70114362 20.6157073,7.70114362 C15.6620406,7.70034574 11.5040406,11.199016 10.4845927,15.9296011 C9.83731146,15.7508777 9.15072812,15.6559309 8.44970729,15.6415691 C8.38233229,15.6399734 8.31495729,15.6391755 8.24758229,15.6391755 C3.78398854,15.6391755 0.108842708,19.204867 0.002165625,23.6881117 C-0.106115625,28.2391755 4.06311354,32.4024734 8.61654062,32.5261436 C8.73123854,32.5277394 9.06650937,32.5293351 9.58625937,32.5293351 C11.9868948,32.5293351 18.3377906,32.5077926 25.1731448,32.4838564" id="Fill-1" fill="#0095D3" mask="url(#mask-2)"></path>
                    </g>
                    <path d="M66.8276008,36.8051823 C66.9559316,31.0534229 64.2252951,25.9430582 59.3866923,23 L58.4375,24.7314459 C62.5440857,27.2298464 64.9087136,31.515675 64.9307348,36.3621241 L62.4142362,35.775112 L64.5776353,43 L69.4375,37.4145873 L66.8276008,36.8051823 Z" id="Fill-4" fill="#0095D3"></path>
                    <path d="M17.0707761,42.5701365 L19.6591502,43.2342114 L17.6394162,36 L12.4375,41.3808315 L15.1210407,42.0695017 C14.8119459,47.7692796 17.4829025,52.9247858 22.400892,56 L23.4375,54.3140273 C19.2619673,51.7037448 16.9457225,47.3773405 17.0707761,42.5701365" id="Fill-6" fill="#0095D3"></path>
                    <path d="M38.4375,28.8316435 C38.4375,28.3721985 38.0653015,28 37.605056,28 C33.1018543,28 29.4375,31.6635539 29.4375,36.167556 C29.4375,36.6270011 29.8104989,37 30.269944,37 C30.729389,37 31.1015875,36.6270011 31.1015875,36.167556 C31.1015875,32.5816435 34.0191435,29.6640875 37.605056,29.6640875 C38.0653015,29.6640875 38.4375,29.2910886 38.4375,28.8316435" id="Fill-8" fill="#0095D3"></path>
                    <path d="M39.4375,53.3209094 C31.5431627,53.3209094 25.1200059,46.9146819 25.1200059,39.0393511 C25.1200059,31.164828 31.5431627,24.7586005 39.4375,24.7586005 C47.3318373,24.7586005 53.7549941,31.164828 53.7549941,39.0393511 C53.7549941,46.9146819 47.3318373,53.3209094 39.4375,53.3209094 L39.4375,53.3209094 Z M32.2791578,16.3671856 C32.2791578,12.6794859 35.1624127,9.67909063 38.7055532,9.67909063 L40.1694468,9.67909063 C43.713397,9.67909063 46.5958422,12.6794859 46.5958422,16.3671856 L46.5958422,24.766677 C44.442105,23.6892807 42.0114588,23.0795099 39.4375,23.0795099 C36.8635412,23.0795099 34.4337046,23.6892807 32.2791578,24.766677 L32.2791578,16.3671856 Z M47.7577267,25.4055229 L48.2791578,25.4055229 L48.2791578,16.3671856 C48.2791578,11.7531189 44.6412852,8 40.1694468,8 L38.7055532,8 C34.2337148,8 30.5958422,11.7531189 30.5958422,16.3671856 L30.5958422,25.4055229 L31.118083,25.4055229 C26.512648,28.2072379 23.4375,33.2647008 23.4375,39.0393511 C23.4375,47.8539712 30.6007002,55 39.4375,55 C47.4970112,55 55.4375,48.6293089 55.4375,39.0393511 C55.4375,33.2647008 52.3631617,28.2072379 47.7577267,25.4055229 L47.7577267,25.4055229 Z" id="Fill-10" fill="#0095D3"></path>
                    <path d="M39.4375,35 C37.7814039,35 36.4375,36.1296494 36.4375,37.5234534 C36.4375,38.4565407 37.041564,39.2699815 37.9375,39.7058367 L37.9375,42.3271827 C37.9375,42.6969991 38.2977217,43 38.7373768,43 L40.1376232,43 C40.5772783,43 40.9375,42.6969991 40.9375,42.3271827 L40.9375,39.7058367 C41.833436,39.2699815 42.4375,38.4565407 42.4375,37.5234534 C42.4375,36.1296494 41.0935961,35 39.4375,35" id="Fill-12" fill="#0095D3"></path>
                </g>
            </g>
        </g>
    </g>
</svg>