<?xml version="1.0" encoding="UTF-8"?>
<svg width="66px" height="67px" viewBox="0 0 66 67" version="1.1" xmlns="http://www.w3.org/2000/svg" xmlns:xlink="http://www.w3.org/1999/xlink">
    <title>icon</title>
    <g id="Designs" stroke="none" stroke-width="1" fill="none" fill-rule="evenodd">
        <g id="Home-Page-Carvel-Op1" transform="translate(-1008.000000, -521.000000)" fill="#0095D3">
            <g id="Callout-3" transform="translate(890.000000, 483.000000)">
                <g id="icon" transform="translate(118.000000, 38.000000)">
                    <path d="M25,36 L18,36 L18,35.0986119 C18,29.1350279 19.6725664,23.6322336 22.5888359,20 L23.8856365,21.1674779 C21.4104833,24.2502253 19.8781484,29.0694069 19.7161334,34.1972237 L25,34.1972237 L25,36 Z" id="Fill-1"></path>
                    <path d="M46,36 L39,36 L39,34.1972237 L44.2838666,34.1972237 C44.1225323,29.0694069 42.5895167,24.2502253 40.1143635,21.1674779 L41.4104833,20 C44.3274336,23.6322336 46,29.1350279 46,35.0986119 L46,36 Z" id="Fill-3"></path>
                    <path d="M37.0084328,39 L25.9908676,39 L25.7396892,38.5505671 C24.8140374,36.8967391 24.0381131,34.9955104 23.4350052,32.9007561 L25.1141921,32.4045369 C25.6249448,34.1788752 26.2651348,35.7986767 27.0172706,37.2277883 L35.9820298,37.2277883 C38.0635219,33.2715028 39.250847,27.8364839 39.250847,22.2129017 C39.250847,12.8939036 36.0834806,4.69281664 31.5,1.99976371 C26.9165194,4.69281664 23.749153,12.8939036 23.749153,22.2129017 C23.749153,23.6476843 23.8240168,25.0796314 23.9730446,26.4690454 L22.2336868,26.6604442 C22.0783621,25.2072306 22,23.7114839 22,22.2129017 C22,11.9865312 25.7445868,2.93478261 31.1067904,0.201323251 L31.5,0 L31.8932096,0.201323251 C37.2554132,2.93478261 41,11.9865312 41,22.2129017 C41,28.4404537 39.6713433,34.241966 37.2596111,38.5505671 L37.0084328,39 Z" id="Fill-5"></path>
                    <path d="M31.5,12.75 C30.5354,12.75 29.75,13.5347 29.75,14.5 C29.75,15.4653 30.5354,16.25 31.5,16.25 C32.4646,16.25 33.25,15.4653 33.25,14.5 C33.25,13.5347 32.4646,12.75 31.5,12.75 M31.5,18 C29.5701,18 28,16.4299 28,14.5 C28,12.5701 29.5701,11 31.5,11 C33.4299,11 35,12.5701 35,14.5 C35,16.4299 33.4299,18 31.5,18" id="Fill-7"></path>
                    <path d="M31.5,52 L30.7531,50.8068351 C30.6404,50.6270431 28,46.3488113 28,41 L29.75,41 C29.75,44.1218425 30.7629,46.8854631 31.4993,48.4817979 C32.235,46.8820579 33.25,44.111627 33.25,41 L35,41 C35,46.3488113 32.3596,50.6270431 32.2469,50.8068351 L31.5,52 Z" id="Fill-9"></path>
                    <path d="M1.74437695,67 L0,67 C0,65.3231477 0.505869315,63.6699029 1.46806764,62.1826265 C0.505869315,60.5279509 0,58.6479305 0,56.7056719 C0,50.8023505 4.68469874,46 10.4425382,46 C14.6423001,46 18.3738713,48.548186 20.0170744,52.4377108 C20.8613528,52.0843127 21.7656378,51.9011753 22.6775981,51.9011753 C26.5229026,51.9011753 29.6620834,55.0588656 29.7576753,58.977721 C31.1287555,58.660092 32.6003119,58.5756771 34,58.7294839 L33.8130028,60.5086357 C32.236086,60.3319366 30.5740437,60.5114972 29.0801593,61.028002 L27.7104745,61.5015841 L27.9393367,60.0393459 C27.9909703,59.7131323 28.0153916,59.4262647 28.0153916,59.1615738 C28.0153916,56.1440981 25.6214086,53.689627 22.6775981,53.689627 C21.7349368,53.689627 20.8034395,53.9507409 19.9828846,54.4443536 L19.0472008,55.0073582 L18.7115827,53.9500255 C17.5442456,50.2636689 14.2208586,47.7884517 10.4425382,47.7884517 C5.64619931,47.7884517 1.74437695,51.7881451 1.74437695,56.7056719 C1.74437695,58.4984159 2.26210803,60.2274911 3.24035462,61.7068983 L3.59132326,62.2377108 L3.21384009,62.749208 C2.25303727,64.0512008 1.74437695,65.5213081 1.74437695,67" id="Fill-11"></path>
                    <path d="M66,67 L64.2389797,67 C64.2389797,63.6151939 63.148556,60.3779288 61.1684648,57.8826869 L60.5852148,57.1485806 L61.3325919,56.590084 C62.1525229,55.977609 62.6223631,55.0347861 62.6223631,54.0041583 C62.6223631,52.2372651 61.2149557,50.7992803 59.4849294,50.7992803 C58.0176473,50.7992803 56.762392,51.8191124 56.4320246,53.2801279 L56.2284507,54.1797681 L55.3528714,53.9473011 C54.5054684,53.7227509 53.6601787,53.6090364 52.8416565,53.6090364 C50.9221444,53.6090364 49.4612019,54.415114 48.4975716,56.0056777 L47,55.0578169 C47.8981203,53.5766493 49.6401216,51.8097561 52.8416565,51.8097561 C53.546769,51.8097561 54.2659697,51.8802879 54.9886924,52.0206317 C55.7487487,50.2055178 57.4914544,49 59.4849294,49 C62.1856301,49 64.3833834,51.2447821 64.3833834,54.0041583 C64.3833834,55.2823671 63.8952286,56.5109156 63.0471212,57.4321471 C64.9567716,60.1404238 66,63.5043583 66,67" id="Fill-13"></path>
                    <path d="M54.6188406,67 L52.9960453,66.316567 C53.0704146,66.1282079 53.1244377,65.9593343 53.1602191,65.7991209 C53.5699522,63.9790384 52.4635327,62.1553476 50.6941035,61.7338852 C50.1286158,61.600374 49.5329594,61.6234678 48.9716813,61.8046101 L47.9305105,62.1394706 L47.8364964,61.0215849 C47.6274203,58.5491018 45.9085061,56.5125147 43.5595573,55.9524894 C40.5763642,55.2423541 37.5896631,57.1598636 36.8985894,60.2277345 C36.6467159,61.3463419 36.7259964,62.501755 37.1266087,63.569123 L35.490483,64.2186369 C34.96218,62.8135217 34.8583435,61.2929374 35.1901992,59.8207058 C36.0987681,55.7843374 40.0319244,53.2584498 43.9545567,54.1951933 C46.7258673,54.8548108 48.8299586,57.0761485 49.4347358,59.8719452 C49.9875947,59.8142106 50.546768,59.8481297 51.0898046,59.9765891 C53.8014794,60.6224947 55.4972408,63.4175697 54.869311,66.2061496 C54.8117799,66.4609034 54.729693,66.720709 54.6188406,67" id="Fill-15"></path>
                </g>
            </g>
        </g>
    </g>
</svg>