<?xml version="1.0" encoding="utf-8"?>
<!-- Generator: Adobe Illustrator 22.0.1, SVG Export Plug-In . SVG Version: 6.00 Build 0)  -->
<svg xmlns="http://www.w3.org/2000/svg" xmlns:xlink="http://www.w3.org/1999/xlink" version="1.1" id="Layer_1" x="0px" y="0px" viewBox="0 0 500 200" style="enable-background:new 0 0 500 200;" xml:space="preserve">
<style type="text/css">
	.st0{fill:url(#SVGID_1_);}
	.st1{fill:url(#SVGID_2_);}
</style>
<linearGradient id="SVGID_1_" gradientUnits="userSpaceOnUse" x1="203.7673" y1="132.7634" x2="233.4113" y2="22.1308">
	<stop offset="0" style="stop-color:#D56B36"/>
	<stop offset="4.462330e-02" style="stop-color:#D76331"/>
	<stop offset="0.2232" style="stop-color:#DF4820"/>
	<stop offset="0.3818" style="stop-color:#E33816"/>
	<stop offset="0.5031" style="stop-color:#E53212"/>
	<stop offset="0.6426" style="stop-color:#E02723"/>
	<stop offset="0.9161" style="stop-color:#D20A4E"/>
	<stop offset="1" style="stop-color:#CD005C"/>
</linearGradient>
<path class="st0" d="M208.1,133.7c-26.6-4.9-46.8-28.2-46.8-56.3c0-11.2,3.3-21.6,8.8-30.5L208.1,133.7z M229,133.7  c26.6-4.9,46.8-28.2,46.8-56.3c0-11.2-3.3-21.6-8.8-30.5L229,133.7z M218.8,112.2l35-79.9c-9.7-7.6-21.9-12.1-35.2-12.1  c-12.9,0-24.7,4.3-34.3,11.5L218.8,112.2z"/>
<linearGradient id="SVGID_2_" gradientUnits="userSpaceOnUse" x1="220.1196" y1="188.6476" x2="280.4326" y2="-36.4436">
	<stop offset="0" style="stop-color:#435D62"/>
	<stop offset="0.1081" style="stop-color:#3E555C"/>
	<stop offset="0.6914" style="stop-color:#233041"/>
	<stop offset="1" style="stop-color:#192236"/>
</linearGradient>
<path class="st1" d="M41.6,24.5c6.8-3.4,15.1-5,24.9-5v19.5c-1.1-0.1-2.7-0.2-4.6-0.2c-10.9,0-19.4,3.2-25.7,9.7  C30.1,55,27,64.2,27,76.2v55.3H6.9v-111h19.3v18.6C29.6,32.7,34.8,27.8,41.6,24.5z M473.2,20.5v18c-4.8-6.3-11-11-18.5-14.2  c-7.5-3.2-15.7-4.8-24.4-4.8c-11.1,0-21.2,2.3-30.1,7c-9,4.7-16,11.3-21.2,19.8c-0.2,0.3-0.3,0.5-0.5,0.8  c-2.1-6.1-5.2-11.3-9.4-15.4c-8.3-8.2-19.5-12.3-33.6-12.3c-8.8,0-16.7,1.5-23.6,4.6c-6.9,3.1-12.4,7.5-16.4,13.2V20.5h-19.3v16.8  c7.5,11.1,11.9,24.4,11.9,38.7c0,14.3-4.4,27.7-11.9,38.7v16.8h20.1V74.3c0-11.9,3.1-21,9.4-27.3c6.3-6.4,14.9-9.5,25.8-9.5  c9.6,0,17,2.7,22.2,8.2c5.2,5.4,7.7,13.5,7.7,24.3v61.6h20.1v-23c4.8,6.7,11,12.2,18.6,16.2c9,4.7,19,7.1,30.1,7.1  c8.5,0,16.3-1.5,23.6-4.5c7.2-3,13.3-7.5,18.3-13.5v9.2c0,13.2-3.3,22.9-9.8,29.4c-6.5,6.4-16.5,9.6-30.1,9.6  c-8.5,0-16.7-1.4-24.7-4.1c-8-2.7-14.7-6.4-20.1-11.1l-10.1,16.2c6.1,5.6,14.2,9.8,24.1,12.8c9.9,3,20.4,4.5,31.3,4.5  c20,0,35.1-4.9,45.2-14.6c10.1-9.7,15.1-24.7,15.1-45V20.5H473.2z M467.4,95.2c-3.4,5.8-8.2,10.3-14.2,13.5  c-6.1,3.2-12.9,4.8-20.5,4.8c-7.7,0-14.6-1.6-20.7-4.8c-6.1-3.2-10.8-7.7-14.2-13.5c-3.4-5.8-5.2-12.3-5.2-19.6  c0-11.2,3.7-20.3,11.2-27.3c7.5-6.9,17.1-10.4,28.9-10.4c11.7,0,21.3,3.5,28.7,10.4c7.4,6.9,11.2,16,11.2,27.3  C472.5,82.9,470.8,89.4,467.4,95.2z M156.3,105.1c-7.6,6.7-17.2,10.1-28.7,10.1c-10.9,0-20-3-27.3-8.9c-7.3-5.9-11.6-13.8-12.9-23.6  h62.8c-0.2-2.2-0.3-4.4-0.3-6.7c0-2.6,0.2-5.2,0.5-7.8H87.4c1.1-9.5,4.9-17.2,11.4-23c6.5-5.9,14.6-8.8,24.2-8.8  c9.6,0,17.7,3,24.2,8.9c2.6,2.4,4.8,5.1,6.5,8c2.2-6.3,5.3-12.2,9.1-17.6c-3.3-3.5-7.1-6.6-11.5-9.1c-8.3-4.8-17.8-7.2-28.4-7.2  c-10.6,0-20.1,2.4-28.6,7.2C86,31.5,79.3,38.2,74.5,46.9c-4.8,8.7-7.2,18.4-7.2,29.1c0,10.9,2.5,20.7,7.4,29.3  c5,8.7,12,15.4,21.1,20.2c9.1,4.8,19.5,7.2,31.2,7.2c9.2,0,17.6-1.5,25-4.6c5.1-2.1,9.6-4.9,13.6-8.3  C161.9,115.4,158.8,110.4,156.3,105.1z"/>
</svg>
