<svg xmlns="http://www.w3.org/2000/svg" viewBox="0 0 801.46 124.82">
  <g>
    <path d="M344.3,115.69,309.21,15.77a16.83,16.83,0,0,1-1.12-4.8,8.58,8.58,0,0,1,8.69-8.45c4.48,0,7.39,3,8.75,7.3l29.07,86.1L383.87,9.58c1.34-4.09,4-7.06,8.48-7.06h.91c4.7,0,7.6,3,8.94,7.06l29,86.34L460.78,9.37c1.12-3.66,3.57-6.85,8.28-6.85a8.34,8.34,0,0,1,8.49,8.23,17,17,0,0,1-1.12,4.79L441.11,115.69c-1.81,5.23-5.36,8-9.4,8h-.66c-4.48,0-7.84-2.74-9.41-8L392.82,30.78l-29.07,84.91c-1.56,5.23-4.93,8-9.39,8h-.46c-4.24,0-7.81-2.74-9.6-8" style="fill: #717074"/>
    <path d="M600.09,11.23a8.81,8.81,0,0,1,8.5-8.94,8.7,8.7,0,0,1,8.74,8.94V31.51c8.51-19.7,27.36-29,39.86-29,5.17,0,8.52,3.91,8.52,8.93a8.7,8.7,0,0,1-7.63,8.94c-22.4,2.74-40.75,19.93-40.75,54.05v40.15a8.62,8.62,0,1,1-17.24,0V11.23" style="fill: #717074"/>
    <path d="M721,124.62c-31.16,0-56.62-24.71-56.62-61v-.48c0-33.74,23-60.95,54.42-60.95,33.56,0,52.67,28.31,52.67,59.37a8,8,0,0,1-7.91,8.18h-82c2.38,25.37,19.7,39.66,39.92,39.66,14,0,24.33-5.68,32.68-13.62a7.38,7.38,0,0,1,4.84-2,7.44,7.44,0,0,1,4.81,13.13c-10.74,10.65-23.47,17.7-42.78,17.7m33.57-67.78C752.85,35.53,741,17,718.4,17c-19.75,0-34.68,17-36.83,39.88Z" style="fill: #717074"/>
    <path d="M477.85,87.92v-.46c0-24.88,20.11-38.14,49.34-38.14a119.63,119.63,0,0,1,35.53,5V50.24c0-21.23-12.76-32.19-34.4-32.19-11.62,0-18.37,1.51-26.87,5.37a8.14,8.14,0,0,1-3.12.7,7.73,7.73,0,0,1-7.59-7.54,7.28,7.28,0,0,1,4.69-7.32c11.37-5,19.94-6.72,34.67-6.72,16.29,0,28.81,4.32,37.27,13,7.82,8,11.85,19.42,11.85,34.48v65.14c0,5-3.57,8.68-8.3,8.68a8,8,0,0,1-8.2-8.23V104.36c-8.05,10.74-21.46,20.32-41.74,20.32-21.45,0-43.13-12.56-43.13-36.76m85.08-9.13V67.38a117.81,117.81,0,0,0-33.95-5c-21.64,0-33.72,9.6-33.72,24.42v.46c0,14.84,13.41,23.51,29,23.51,21.2,0,38.63-13.24,38.63-31.94" style="fill: #717074"/>
    <path d="M31.52,9.93A16.13,16.13,0,0,0,9.67,1.58c-8.73,4-12,13.88-8,22.36L38.3,105.38c5.77,12.76,11.83,19.44,23.23,19.44,12.19,0,17.49-7.28,23.24-19.44,0,0,32-71.16,32.28-71.91a4.67,4.67,0,0,1,4.6-3,5.16,5.16,0,0,1,5.06,5.26v69.6c0,10.72,5.82,19.52,17,19.52S161,116,161,105.3V48.36c0-11,7.68-18.09,18.17-18.09s17.48,7.36,17.48,18.09V105.3c0,10.72,5.83,19.52,17,19.52s17.26-8.8,17.26-19.52V48.36c0-11,7.67-18.09,18.16-18.09s17.47,7.36,17.47,18.09V105.3c0,10.72,5.83,19.52,17,19.52s17.24-8.8,17.24-19.52V40.5C300.76,16.69,282,0,259.5,0s-36.61,15.92-36.61,15.92C215.41,6,205.07,0,187.6,0,169.14,0,153,15.92,153,15.92,145.51,6,132.75,0,122.18,0,105.83,0,92.84,7.36,84.92,25.89L61.53,82.28l-30-72.35" style="fill: #717074"/>
    <path d="M772.9,17v-.1a14.28,14.28,0,1,1,28.56-.06v.06a14.29,14.29,0,1,1-28.56.1m25.82-.1v-.05a11.57,11.57,0,1,0-23.12.05V17a11.57,11.57,0,1,0,23.12-.08" style="fill: #717074"/>
    <path d="M781.7,11.11a1.55,1.55,0,0,1,1.55-1.56H788a5.32,5.32,0,0,1,4,1.45,4.44,4.44,0,0,1,1.2,3.22v0a4.31,4.31,0,0,1-2.75,4.29l2.1,2.63a1.86,1.86,0,0,1,.48,1.19,1.43,1.43,0,0,1-1.43,1.44,1.85,1.85,0,0,1-1.5-.8l-3-3.84h-2.43v3.09a1.52,1.52,0,0,1-1.51,1.55,1.54,1.54,0,0,1-1.55-1.55Zm6.15,5.31c1.48,0,2.3-.79,2.3-2v0c0-1.32-.89-2-2.37-2h-3v4.06Z" style="fill: #717074"/>
  </g>
</svg>
